<?xml version="1.0" encoding="utf-8"?>
<!-- Generator: Adobe Illustrator 22.0.1, SVG Export Plug-In . SVG Version: 6.00 Build 0)  -->
<svg version="1.1" id="Ebene_1" xmlns="http://www.w3.org/2000/svg" xmlns:xlink="http://www.w3.org/1999/xlink" x="0px" y="0px"
	 viewBox="0 0 455.2 131.2" style="enable-background:new 0 0 455.2 131.2;" xml:space="preserve">
<style type="text/css">
	.st0{fill:#FEFEFE;}
	.st1{fill:#3883E9;}
	.st2{fill:#3782E8;}
	.st3{fill:#3E8FF5;}
	.st4{fill:#1453BE;}
	.st5{fill:#327CE3;}
	.st6{fill:#256CD4;}
	.st7{fill:#1554BE;}
	.st8{fill:#347DE3;}
	.st9{fill:#3783E8;}
	.st10{fill:#3580E7;}
	.st11{fill:#3078DE;}
	.st12{fill:#3C8BF2;}
	.st13{fill:#2B73DB;}
	.st14{fill:#3883E8;}
	.st15{fill:#1D60C9;}
	.st16{fill:#4A97F8;}
	.st17{fill:#347FE5;}
	.st18{fill:#2164CD;}
	.st19{fill:#337DE3;}
	.st20{fill:#276FD7;}
	.st21{fill:#1554BF;}
	.st22{fill:#2064CD;}
	.st23{fill:#1555BF;}
	.st24{fill:#3B84E7;}
	.st25{fill:#559CF6;}
	.st26{fill:#3C85E8;}
	.st27{fill:#1756BF;}
	.st28{fill:#3B85E8;}
	.st29{fill:#3077DE;}
	.st30{fill:#347FE6;}
	.st31{fill:#3983E7;}
	.st32{fill:#4A95F5;}
	.st33{fill:#286BD1;}
	.st34{fill:#3D86E8;}
	.st35{fill:#4694F5;}
	.st36{fill:#3984E9;}
	.st37{fill:#1454BF;}
	.st38{fill:#498CE8;}
	.st39{fill:#3984E8;}
	.st40{fill:#7AB5FD;}
	.st41{fill:#4288E6;}
	.st42{fill:#3179D9;}
	.st43{fill:#327ADA;}
	.st44{fill:#488CE9;}
	.st45{fill:#3178DE;}
	.st46{fill:#1F64CD;}
	.st47{fill:#3E86E6;}
	.st48{fill:#3581E9;}
	.st49{fill:#5292E9;}
	.st50{fill:#2F77DE;}
	.st51{fill:#4798FA;}
	.st52{fill:#276ED7;}
	.st53{fill:#2C75DD;}
	.st54{fill:#3E90F6;}
	.st55{fill:#1657C1;}
	.st56{fill:#246AD3;}
	.st57{fill:#2E76DE;}
	.st58{fill:#2065CE;}
	.st59{fill:#3882E7;}
	.st60{fill:#3682E9;}
	.st61{fill:#1859C3;}
	.st62{fill:#2E76DD;}
	.st63{fill:#4C7ED0;}
	.st64{fill:#3B89EE;}
	.st65{fill:#619EEF;}
	.st66{fill:#195AC4;}
	.st67{fill:#2D76DE;}
	.st68{fill:#4188E7;}
	.st69{fill:#2166CF;}
	.st70{fill:#317CE4;}
	.st71{fill:#185AC4;}
	.st72{fill:#3987EE;}
	.st73{fill:#2971D9;}
	.st74{fill:#3582EA;}
	.st75{fill:#1655BF;}
	.st76{fill:#1C5FC9;}
	.st77{fill:#327DE5;}
	.st78{fill:#1B5AC2;}
	.st79{fill:#3F87E8;}
	.st80{fill:#2F78DE;}
	.st81{fill:#1A5BC4;}
	.st82{fill:#3B8BF1;}
	.st83{fill:#1556C1;}
	.st84{fill:#3887EE;}
	.st85{fill:#2C74DB;}
	.st86{fill:#1B5EC8;}
	.st87{fill:#5088DB;}
	.st88{fill:#1758C2;}
	.st89{fill:#1858C2;}
	.st90{fill:#3076D3;}
	.st91{fill:#1858C1;}
	.st92{fill:#2164CC;}
	.st93{fill:#2D77DF;}
	.st94{fill:#1E61CB;}
	.st95{fill:#3279DA;}
	.st96{fill:#5B99ED;}
	.st97{fill:#3583EA;}
	.st98{fill:#2A71D9;}
	.st99{fill:#3C8CF2;}
	.st100{fill:#347CE0;}
	.st101{fill:#276DD4;}
	.st102{fill:#195AC5;}
	.st103{fill:#2865C9;}
	.st104{fill:#5494EB;}
	.st105{fill:#4C99F8;}
	.st106{fill:#307BE3;}
	.st107{fill:#438AEA;}
	.st108{fill:#2E77DF;}
	.st109{fill:#1C5BC2;}
	.st110{fill:#5E98E8;}
	.st111{fill:#2A69CB;}
	.st112{fill:#6A9AE2;}
	.st113{fill:#5585D3;}
	.st114{fill:#3573D2;}
	.st115{fill:#2B69BD;}
	.st116{fill:#4489E7;}
	.st117{fill:#4286E5;}
	.st118{fill:#4F90E7;}
	.st119{fill:#488CE7;}
	.st120{fill:#4C8EE7;}
	.st121{fill:#4C8CE1;}
	.st122{fill:#4F8DE1;}
	.st123{fill:#4178C2;}
	.st124{fill:#296ED4;}
	.st125{fill:#3B72BD;}
	.st126{fill:#4D91EC;}
	.st127{fill:#2D70CA;}
	.st128{fill:#417DCD;}
	.st129{fill:#4389E8;}
	.st130{fill:#2C6CC2;}
	.st131{fill:#2F69B7;}
	.st132{fill:#2F68B6;}
	.st133{fill:#2D68B6;}
	.st134{fill:#2F73CE;}
	.st135{fill:#2E71CB;}
	.st136{fill:#366DB8;}
	.st137{fill:#2C66B6;}
	.st138{fill:#2D66B4;}
	.st139{fill:#2964B4;}
	.st140{fill:#2E74D9;}
	.st141{fill:#1857BF;}
	.st142{fill:#2965B7;}
	.st143{fill:#3069B6;}
	.st144{fill:#F2F6FB;}
	.st145{fill:#3A72BD;}
	.st146{fill:#FAFBFD;}
	.st147{fill:#4088E9;}
	.st148{fill:#1F63CD;}
	.st149{fill:#286CD2;}
	.st150{fill:#3E8BEF;}
	.st151{fill:#FDFEFE;}
	.st152{fill:#DFE9F6;}
	.st153{fill:#FDFDFE;}
	.st154{fill:#326CCA;}
	.st155{fill:#2565CB;}
	.st156{fill:#FBFCFD;}
	.st157{fill:#F9FBFD;}
	.st158{fill:#276CD4;}
	.st159{fill:#E2EBF7;}
	.st160{fill:#2963B3;}
	.st161{fill:#F5F9FD;}
	.st162{fill:#2861AE;}
	.st163{fill:#4898FA;}
	.st164{fill:#3C8AEE;}
	.st165{fill:#EAF1FA;}
	.st166{fill:#E5EDF8;}
	.st167{fill:#4178D0;}
	.st168{fill:#1A5BC5;}
	.st169{fill:#5686D3;}
	.st170{fill:#4B7DCF;}
</style>
<g>
	<path class="st0" d="M82.1,131.1c-26.3,0-52.7,0-79,0.1c-2.5,0-3.1-0.6-3.1-3.1c0.1-41.7,0.1-83.3,0-125C0,0.6,0.6,0,3.1,0
		c149.7,0.1,299.3,0.1,449,0c2.5,0,3.1,0.6,3.1,3.1c-0.1,41.7-0.1,83.3,0.1,125c0,4-2.1,3-4.1,3c-121.3,0-242.7,0-364,0
		c-0.6-2.5,1.2-4,2.5-5.6c2.4-3.2,4.5-6.6,6-10.2c0.6-1.4,1.9-2.8,0.4-5c-2.1,1.7-2,4.5-3.4,6.3c-0.7,0.9-1.3,2-2.7,1.8
		c-1.4-0.2-1.6-1.5-1.9-2.6c-0.5-1.8,0.1-4.1-2.7-5.2c-0.4,3.1,0.4,6,1,8.8C87.4,124.3,86.2,128.1,82.1,131.1z"/>
	<path class="st1" d="M82.1,131.1c6.1-7,1.9-14.6,1.2-22c4.7,0.2,4.7,0.2,6.4,8.8c2.2-1.3,2.8-3.4,3.2-5.3c0.8-3.6,2.5-4.6,6-3.1
		c-2,8.2-7.2,14.7-11.8,21.5C85.4,131.1,83.7,131.1,82.1,131.1z"/>
	<path class="st2" d="M17.7,102.1c4-0.9,7.3,0.8,8.9,3.9c1.5,2.9-0.4,5.8-3.1,7.7c-1.5,1-1.5,2-0.6,3.3c0.3,0.4,0.8,0.9,0.7,1.2
		c-0.7,2.3,3.3,5.5-0.5,6.8c-4.3,1.5-3.8-2.6-4.5-5.2c-0.4-1.6-0.6-3.5-2.7-3.7c-2.7-0.2-1.8,2.2-2.3,3.6c-0.5,1.2-0.5,2.6-0.9,3.9
		c-0.4,1.7-1.9,1.6-3.2,1.6c-1.7-0.1-1.8-1.2-1.6-2.4c1.2-6,2.4-12,3.6-18C12.5,100.9,15.6,102.6,17.7,102.1z"/>
	<path class="st3" d="M304.9,25.1c0.1,0.6,0.2,1.3,0.3,1.9c-1.1,0.9-2.3,0.7-3.1-0.1c-3.9-3.4-8.1-2.8-12.5-1.4
		c-4.9-1.9-10-2.4-15.2-2c-4.1-0.3-8.4,1.2-12.2-1.4c0-2,0-4,0-6c0.9-0.9,2-1.3,3.2-1.3c8.5,0.1,17-1,25.4,0.9
		C297,16.6,301.3,20.3,304.9,25.1z"/>
	<path class="st4" d="M98.9,70.1c0.9,4.4-0.4,6.3-5.4,6.1c-8.9-0.4-17.9-0.3-26.8,0c-4.6,0.1-6.6-1.4-5.5-6.1c3.8-2.7,8-1.2,12-1.4
		c6.7,0,13.3,0,20,0C95.2,68.7,97.3,68.5,98.9,70.1z"/>
	<path class="st5" d="M162.1,40.1c-3-1.9-6-1.7-9.1-0.2c-5.6,0.2-11.3,1.9-16.8-0.4c-1.1-1.6-0.5-3.3-0.5-5c3.1-2.9,6.6-1.8,10-0.7
		c1.8,0.6,3.3,1.2,5-0.2c1.9-1.1,3.7-2.1,5.9-2.6c4.1-0.4,8.1-0.5,12,1c3.1,1.4,5.3,3.8,7.6,6.1c0.6,0.9,1,1.9,0.8,3
		c-0.9,0.9-2.1,1.2-3.2,0.7C169.9,40.2,165.9,40.7,162.1,40.1z"/>
	<path class="st6" d="M300.1,47.1c-5.4,6-12.6,6.8-20.1,6.8c-2.7-0.9-5.2,0.4-7.8,0.5c-3.4,0.1-6.9,1-10-1.3c0-1.3,0-2.7,0-4
		c4.6-2.3,9.6-1.9,14.5-2.4c4.4,0.5,8.5-1.4,12.7-1.9c2.3-0.1,4.6-0.4,6.9-0.1C297.9,44.9,299.8,44.7,300.1,47.1z"/>
	<path class="st7" d="M222.9,68.1c0.9,4.2-0.9,6.6-5,7.6c-7.9,2-15.7,2.5-23.5,0c-3-1-5.8-2.5-7.5-5.4c1.1-3.9,4.4-2.7,7-2.7
		c1.4,0,2.7,1,4.2,0.8c0.5,0,1,0.2,1.5,0.4c5.8,3.6,11.7,1.5,17.6,0.3C219.1,68.8,220.8,67.3,222.9,68.1z"/>
	<path class="st8" d="M334.2,40c-3.2-3.5-7.3-3.1-11.4-2.4c-2.1,0.4-4.1,1.3-6,2.1c-5.9,2.5-6.8,1.9-6.5-4.6
		c9.4-4.1,19.3-2.1,29-2.3c0.5,0.1,1,0.2,1.5,0.4c2.6,1.4,4.3,3.8,6.4,5.8c1.9,7.5,0.8,15,0.8,22.5c0,4.4,1.3,9-0.8,13.4
		c-1.9-2-1.4-4.4-1.4-6.8c0-2.6-0.1-5.1,0-7.7c0-1.7,0-3.3,0-5c0-0.8,0-1.6,0-2.4c0-1.3,0-2.6,0-3.9c0-1,0-2,0-3
		c0-1.2,0-2.3-0.3-3.4C342.5,38.7,337.9,41.3,334.2,40z"/>
	<path class="st9" d="M60.1,109.1c1.8-0.1,3.5-0.2,2.9,2.5c-0.4,1.6-0.7,3.2-1,4.9c-1.7,8.9-2.6,9.6-11.4,9
		c-2.4-0.2-4.2-1.4-4.5-3.9c-0.5-4.9-0.2-9.7,4.7-12.6C54,107.4,57,109.6,60.1,109.1z"/>
	<path class="st10" d="M101.1,37.8c-2-2-0.8-4.4-0.9-6.7c1.4-0.7,2.8-0.2,4.3-0.4c5.8-2.3,11.6-3.2,17.4-0.1c0.5,0.3,1.3,0,2,0
		c2.5,0.1,5-0.4,7.1,1.4c0.1,2,1.1,4.2-1,5.9C120.4,38.1,110.8,39.2,101.1,37.8z"/>
	<path class="st11" d="M353.3,46.1c0.3-1.7,0.6-3.3,0.9-5c3.4-1.7,5.1-6,9.5-6.3c5.9-0.4,11.9-0.2,17.8-0.1c1.1,0,2.3,0.1,3.4,0.3
		c3.9,1.1,8.3-1.9,12,1.1c0,1,0,2,0,3c-1.5,1.4-3.3,1.4-5.1,1.3c-3.2-0.2-6.3,0.5-9.1,2c-0.5,0.1-1.1,0.3-1.4,0
		c-5.4-4.2-10.1-3.4-14.4,1.6c-3.7,0.5-7.4,0.4-10.8,2.4C355.1,47,354.1,46.8,353.3,46.1z"/>
	<path class="st12" d="M61.2,26.1c0-2.3,0-4.7,0-7c1.1-1.2,2.6-1.5,4.1-1.5c9.7-0.1,19.4-0.1,29.1,0c1.2,0,2.3,0.3,3.3,0.9
		c0.9,0.8,0.9,1.6,0.4,2.6c-0.3,0.3-0.7,0.6-1,0.9c-5.7,1-11.5,0.2-17.2,0.5c-1.9,0.1-4-0.4-5.8,0.4c-0.1,1-0.1,2-0.2,3.1
		C69.7,28.3,65.5,28.3,61.2,26.1z"/>
	<path class="st13" d="M224.8,45c0,0.3,0,0.7,0.1,1c-0.7,0.7-1.6,1.3-2.6,1.1c-3.6-0.4-6.1,1.5-8.1,4.2c-7.5,1.3-15,2.6-22.3-0.9
		c-0.3-0.4-0.5-0.9-0.6-1.4c0.3-2.2,0.4-4.1-2.7-4.2c-0.9,0-1.9-0.5-1.7-1.9c3.4-4.2,5.8-4.4,9.2-0.7c0.3,3.1,1.8,4.7,5.1,4.4
		c1.1-0.1,2.3,0,3.4,0c6.9,0,6.9,0,6.1-6.5c2.4-3.3,5.5-2.9,8.3-1.1C221.3,40.6,223.6,42.4,224.8,45z"/>
	<path class="st14" d="M330.1,109.1c4.1,3.2,4.9,7.3,3,12c-1.5,3.5-4.1,4.3-8,4.2c-6.4-0.1-6.4-3.6-6.1-8.3c0.3-5,0.2-10,0.2-15
		c0.9-0.7,1.8-0.8,2.7,0c0.1,1.6,0.3,3.3,0.1,4.9c-0.4,3.6,1.6,2,3.1,1.5C326.7,109,328.5,108,330.1,109.1z"/>
	<path class="st14" d="M38.1,122c1.7-1.3,3-0.2,3.3,1.1c0.3,1.1-1.1,1.8-2.4,2c-3.6,0.6-7.5,1.6-9.8-2.2c-2.3-3.8-1.1-7.6,1.5-10.9
		c0.9-1.1,2.1-2,3.2-3c1.8-0.6,3.7-0.6,5.5,0c2.7-0.1,4.6,1,4.8,3.7c0.1,2.5-1.7,3.8-3.9,4.4c-1.4,0.4-2.9,0.8-4.3,0.8
		c-3.9,0-3,1.9-1.8,4C35.4,122.9,36.7,123,38.1,122z"/>
	<path class="st15" d="M73.9,58.1c0.4,8.1,0.4,8.1,8.7,8.1c4.3,0,8.6,0,12.9,0c2.1,0,3.7,0.4,3.4,3c-8.2,1.1-16.5,0.2-24.7,0.5
		c-0.3,0-0.8,0-0.9-0.2c-3.2-3.6-7.6-5.1-12-6.3c0-1.7,0-3.3,0-5C65.5,55.8,69.7,55.8,73.9,58.1z"/>
	<path class="st16" d="M98.1,21.1c0-0.7-0.1-1.4-0.1-2c-1.4-1.9-3.5-1.5-5.5-1.5c-8.4,0-16.8,0-25.3,0c-2.1,0-4.3,0.2-6.1-1.5
		c-0.2-3.3,1.9-3.8,4.5-3.8c9.7,0,19.5-0.1,29.2,0C99.1,12.3,100,14.9,98.1,21.1z"/>
	<path class="st17" d="M223.2,39c0.7,0.5,0.9,1.2,0.8,2c-1.1,0.9-2.2,0.5-3-0.3c-3.1-3.2-6.8-3.1-10.8-2.1c-4-1.2-8-0.8-12,0.1
		c-3.4-1.6-6.5,1.5-9.8,0.6c-1.2-1.7,0.3-2.9,0.9-4.2c2.5-3.7,6.4-4.5,10.4-5.3c3.2-0.2,6.5-0.4,9.7,0.1c2.7,0.7,5.3,1.8,7.7,3.2
		C219.3,34.9,221.4,36.7,223.2,39z"/>
	<path class="st18" d="M183,62.2c-1.6-2.9-1.1-6-0.9-9.1c1.6-1.5,3.6-1.6,5.6-1.5c10.4,0.1,20.7,0.3,31.1,0c2,0,4-0.1,5.5,1.6
		c-0.6,0.7-1.3,1.4-1.9,2c-8,0.8-16.1,0.2-24.2,0.3c-2.5,0-4.4,0.2-3.4,3.5c0,0.3,0.1,0.7,0.1,1c-0.8,1.1-0.7,2.7-2.2,3.2
		c-0.9-0.1-1.4-0.7-1.9-1.3C188.2,58.8,185.5,58.9,183,62.2z"/>
	<path class="st19" d="M258.2,38.3c0,1.9-1.2,2.2-2.7,1.8c-2.1-0.5-4.3-0.5-6.4-0.1c-5.9,0.4-11.8,1.3-17.7-0.4
		c-1.1-2.5-2.1-5.4,0.5-7.1c2.5-1.6,5.3-1,7.5,1.7c3.2,4,5-0.1,7.2-1.5c1-0.9,2.2-1.4,3.5-1.7C257,29.4,259,31.3,258.2,38.3z"/>
	<path class="st20" d="M95,44.1c0.3,3.4-1.7,3.9-4.6,4.1c-5.5,0.3-11.1-1.3-16.5,0.9c-4.2,2.3-8.4,2.3-12.7,0c0-1.7,0-3.3,0-5
		c1.4-1.4,3.2-1.5,5-1.6c8.1-0.1,16.1,0.1,24.2,0.1C92.1,42.6,93.7,42.8,95,44.1z"/>
	<path class="st21" d="M385,70.9c-9.1,8.9-19.9,9-27.1,0.4c0-2.7,2.3-2.3,3.8-2.5c2.1-0.3,4.2,0,6.3,0c0.8,0,1.6,0.1,2.4,0.3
		c2.1,0.7,4.2,1.1,6.4,0.2c1.4-0.5,2.7-1.1,4.2-1C382.6,68.7,384.7,68.5,385,70.9z"/>
	<path class="st22" d="M347,53.1c0,0.7,0,1.3,0,2c-3.2,2.4-6.8,1.2-10.3,1.4c-2.9,0-5.9-0.4-8.8,0.4c-3.1,0.1-5.1,2.4-7.5,3.9
		c-3.8,0.3-8.2-1.1-10.9,3.1c-0.3,0.9-0.6,1.8-1.4,2.3c-1.1-2.7-0.6-5.4,0.3-8.1c2.5-2,4.8-4.2,8.1-4.9
		C326.5,49.4,336.8,50.1,347,53.1z"/>
	<path class="st23" d="M336.1,71.9c-8,7.4-19.9,7.3-26-0.2c-0.7-0.8-1.2-1.6-1.2-2.6c3.6-2.4,7.3-1.8,10.8,0c3,1.5,5.9,1.9,9.1,1.3
		c0.9-0.4,1.8-0.8,2.8-1.1c0.5-0.1,1-0.2,1.5-0.2c1.3,0,2.4,0.4,3.2,1.5C336.4,71.1,336.3,71.5,336.1,71.9z"/>
	<path class="st24" d="M348.2,109c3.7,2,5.6,5.1,4.7,9.4c-0.6,3.1-2,5.6-5.2,6.7c-4.1,1.4-8.5-0.2-10.1-3.8
		c-2.2-4.9-0.4-10.1,4.5-13C344,109,346.2,108,348.2,109z"/>
	<path class="st25" d="M304.9,25.1c-4.7-2.1-7.4-7.3-12.8-8c-6.7-2.6-13.6-1.1-20.5-1.5c-3.1-0.2-6.2,0.5-9.3-0.5
		c0.4-1.9,1.7-2.9,3.6-2.8c8.6,0.2,17.3-1.1,25.7,1C297.9,14.9,303.2,18.1,304.9,25.1z"/>
	<path class="st26" d="M418.9,110.1c3.8,3.8,4,9.6,0.5,13.2c-2.9,2.9-8.2,3.1-11.3,0.3c-4-3.5-3.2-10.1,1.6-14.7
		C412.9,108.5,416.1,107.8,418.9,110.1z"/>
	<path class="st27" d="M131,69.1c0.3,6.2-0.8,7.7-6.9,8c-6.2,0.3-12.4,0.2-15.3-6.9c4.2-3.1,9.1-0.9,13.6-1.5
		C125.2,69.3,128.2,67.2,131,69.1z"/>
	<path class="st28" d="M276.1,108.3c2.2,1.8,4.9,3,5.1,6.6c0.3,5.6-1.4,9.2-5.6,10.3c-3.9,1-7.3,0.2-9.4-3.5
		c-2.4-4.3-1-9.6,3.1-12.6C271.4,107.9,273.9,109.2,276.1,108.3z"/>
	<path class="st29" d="M95,44.1c-11.3,0-22.5,0-33.8,0c0-1.7,0-3.3,0-5c3.1-2.3,6.5-1.4,9.9-1.1c4.9,2.7,10.2,1.2,15.4,1.6
		c2.9,0.2,5.9-0.7,8.5,1.5C95,42.1,95,43.1,95,44.1z"/>
	<path class="st30" d="M95,41.1c-5.8,0-11.7-0.1-17.5,0.1c-2.5,0.1-4.6-0.5-6.4-2.1c-1.2-1.7-3.1-1.5-4.8-1.6c-1.8-0.1-3.6,0-5-1.4
		c0-1,0-2,0-3c4.2-2.2,8.4-2.2,12.7,0c-0.4,4,1.2,5.6,5.3,5.2c4.1-0.4,8.3,0,12.5-0.1C93.8,38.1,95.4,38.4,95,41.1z"/>
	<path class="st31" d="M247.1,34.1c-4.1,4-5.7,4.1-9.2,0.1c-1.5-1.7-3.5-1.3-5-0.9c-3.2,0.9-1.3,3.8-1.8,5.8
		c1.2,1.4,1.3,3.1,1.3,4.8c0,1.7,0.1,3.4,0,5c0.1,1.4,0,2.8,0,4.2c0.1,1.7,0,3.4,0,5.2c0.1,2.7,0.1,5.4,0,8c-0.1,3,0.9,6.3-1.6,8.9
		c-1.5-1.7-0.7-3.8-0.7-5.7c-0.1-11.8,0.1-23.7,0-35.5c0-3.6,0.7-5.7,4.8-5.6c3.7,0,6.9,0.1,6.2,5.2c-0.1,0.4,0.4,0.9,0.6,1.3
		c1.1-0.4,2-1.6,3.3-1.6C245.8,33.2,246.5,33.5,247.1,34.1z"/>
	<path class="st32" d="M104.1,32.1c-1.4,0.1-2.6-0.2-3.8-0.9c-0.1-1.5,0.7-2.4,2-2.2c5.2,0.8,5.3-2.5,4.8-6c-0.7-5,1.6-6.1,6.3-6.1
		c4.6,0,7.5,0.8,6.6,6.2c-0.9,4.9,1.3,6.4,6,6c2-0.2,5.5-1.5,5,3c-2.7,0-5.3,0-8,0c-3.9-0.5-5.7-2.8-5.4-6.7c0.1-1.9,0.3-4-2.6-3
		c-2,0.7-6.2-2.7-5.7,3C109.8,29.3,108,31.5,104.1,32.1z"/>
	<path class="st33" d="M224.3,53.1c-14.1-1-28.2-0.7-42.2-0.1c0-1.3,0-2.7,0.1-4c3.3-2,6.6-2,9.9,0c0.6,0.6,1.1,1.6,1.7,1.6
		c6.8,0.1,13.6,1.4,20.3-0.6c3.4-2.5,7-3.6,10.8-1C224.9,50.4,225.7,52,224.3,53.1z"/>
	<path class="st34" d="M310.1,108.3c3.2,2.3,6.3,13.7,3.6,15.8c-2.1,1.6-5.9,1.1-9,1.1c-2,0-3.5-1.4-3.7-3.4
		c-0.2-2.1-0.6-4.5,2.6-4.8c0.9-0.4,1.8-0.4,2.7-0.4c1.5,0.6,0.7,1.5,0.2,2.3c-0.6,1-1.3,1.9-0.6,3.1c1,0.9,1.7,0.3,2.4-0.4
		c1-1.1,1.3-2.4,0.9-3.8c-1.1-1.4-3.2-0.7-4.4-1.8c0.8-0.3,1.5-0.5,2.3-0.8c1.3-0.5,3.9,1.1,3.4-2c-0.4-2.3-2.3-2.6-4.2-2.3
		c-1.4,0.2-2.8,0.7-4.6,1.2c0.3-2.4,1.6-3.3,3.4-3.8C306.7,108.8,308.4,108.8,310.1,108.3z"/>
	<path class="st35" d="M61.2,16.1c10.8,0,21.7,0,32.5,0c2.1,0,4.7-0.5,4.3,3c-12.3,0-24.5,0-36.8,0C61.2,18.1,61.2,17.1,61.2,16.1z"
		/>
	<path class="st36" d="M82.2,102.1c-1.2,6.7-2.5,13.3-3.7,20c-0.4,2-1,3.5-3.5,3.1c-3-0.5-1.4-2.5-1.1-3.8
		c1.3-6.5,2.7-12.9,4.1-19.4C79.4,101.2,80.8,100.9,82.2,102.1z"/>
	<path class="st28" d="M234,123c1.5-1.4,2.6,0,3.9,0.6c-5.3,3-10.6,2.3-12.9-1.4c-2.7-4.4-0.9-10.7,4-13.9c1.6,0.9,3.5-0.2,5.1,0.8
		c1.1,0.7,2.4,1.2,3.3,2.2c1.2,1.2,1.7,2.9,1.3,4.6c-0.5,2-2.4,1.3-3.8,1.4c-0.8,0.1-1.7-0.1-2.5,0c-1.7,0.3-4.2-1.1-4.9,1
		c-0.8,2.5,1.8,3.6,3.5,4.7C232.1,123.9,233.1,123.8,234,123z"/>
	<path class="st37" d="M230.9,75.3c0.1-3.1,0.2-6.1,0.3-9.2c3.6-2.2,7.3-2.1,11-0.2c0.7,3.1,0.6,6.3,0,9.4
		C238.4,76.8,234.6,76.8,230.9,75.3z"/>
	<path class="st38" d="M355.2,39.1c4.8-11.2,16.2-14.7,26.6-8.2c1.4,0.9,3.1,2.9,3.3-0.8c2.1,0.1,1.8,1.6,1.8,3
		c-0.6,2.3-2.4,2.6-4.4,2.5c-2.7,0.2-4.7-1.3-6.9-2.5c-2.6-1.2-5.3-0.9-8-0.3c-1.5,0.5-2.9,1.2-4.4,1.9c-2.1,0.4-3.3,2-4.7,3.3
		C357.6,38.9,356.8,40.3,355.2,39.1z"/>
	<path class="st36" d="M73.3,102.2c-1.2,6.7-2.4,13.4-3.6,20.1c-0.4,2.1-1.4,3.4-3.7,2.9c-2.5-0.6-1.2-2.4-0.9-3.6
		c1.3-6.5,2.7-13,4.1-19.5C70.6,101.2,71.9,100.9,73.3,102.2z"/>
	<path class="st39" d="M134.1,122.3c0.9,0.2,1,1,0.6,1.4c-3.4,3.7-11.8,1.9-13.4-2.9c-1.7-5.1,0-9.5,4.8-12.5c1.7,0.5,3.3,0.4,5,0.1
		c0.8,0.8,1.5,1.8,2.4,2.3c2.1,1.3,2.3,3.4,1.9,5.2c-0.5,2.2-2.8,1.1-4.3,1.3c-0.5,0.1-1-0.1-1.5,0c-1.8,0.4-4.5-1.2-5.2,1.2
		c-0.7,2.5,1.9,3.5,3.7,4.5C130.3,124.6,132.1,122.4,134.1,122.3z"/>
	<path class="st40" d="M136.1,34.1c0,1.7,0,3.3,0,5c1.3,1.4,1.4,3,1.4,4.8c0,1.7,0.1,3.3,0,5c0,1.4,0,2.8-0.1,4.1
		c-0.3,1.3-0.2,2.9-2.1,3.1c-0.1-14.9-0.2-29.9-0.2-44.8c0-5.1,4-3.9,6.9-4c3-0.1,6.2-0.3,6.2,4.3c-0.1,7.1,0,14.3,0.1,21.4
		c-0.6,0.7-1.4,0.7-2.2,0.4c-1.4-1.7-0.5-3.5-0.4-5.3c0-1,0.1-2.1,0.1-3.1c-0.1-1.1,0-2.1,0-3.2c-0.1-2.4-0.1-4.7,0-7.1
		c-0.6-1.1,1.3-4-1.3-3.3c-2.3,0.7-7.2-3.1-7,3.2c0.1,2.4,0.1,4.8,0,7.2c0,1.1,0.1,2.2,0,3.3c0.1,1.1,0,2.2,0,3.4
		C137.5,30.4,137.5,32.4,136.1,34.1z"/>
	<path class="st41" d="M206.3,113.1c-0.9-1.6-2.2-2.6-4.1-1.8c-1.8,0.8-2.9,2.1-2.9,4.2c0.1,2.3,0,4.7,0,7c0,1.1,0.2,2.6-1.6,2.5
		c-1.6-0.1-1.5-1.5-1.5-2.6c0-4.5,0-9,0-14c3.9,2.9,8.4-3.2,11.9,1.7c0.6,0.8,1.8,1,2.1,2c-0.1,0.3-0.2,0.7-0.4,1
		c-0.9,3.9,0.5,7.9-0.8,11.7c-0.7,0.4-1.3,0.4-2,0C205.8,121,207.3,117,206.3,113.1z"/>
	<path class="st42" d="M378.2,112.1c-0.4-0.4-0.8-0.8-1.2-1.2c-1.7-0.5-3.3-0.6-5,0.1c-1-0.2-2.4,1.3-2.7,0
		c-0.4-1.6,1.2-2.4,2.8-2.7c1.9,0.8,4.1-0.3,6,0.7c1.2,0.7,2.5,1.5,3,2.9c0.6,4.3,0.8,8.6-0.1,12.8c-1.6,0.6-3.1-0.6-5,0.1
		c-2.6,1-5.7,0.9-7-2.4c-1.5-3.6,0.9-5.3,3.8-6.6C374.5,114.5,379.6,118,378.2,112.1z"/>
	<path class="st43" d="M384.9,110.1c1.9-1.5,1-5.8,5.2-4.8c0.3,2.5,1.5,3.6,4.2,3.4c2.2-0.2,4.6-0.5,6.8,0.3l0.1,0
		c0.5,5.3,0.8,10.6-0.2,15.9c-0.6,0-1.2,0-1.9,0c-1.2-2.5-0.4-5.2-0.5-7.8c-0.2-7.4,1.1-6.4-6.7-6.5c-2.9,3.6-0.9,7.6-1,11.5
		c0.8,1.6,2.8,0.3,4.1,1.9c-3,1.4-5.6,2.9-7-1.7c-0.8-2.7-0.4-5.6-0.3-8.3C387.7,111.8,387,110.5,384.9,110.1z"/>
	<path class="st44" d="M146.1,33.1c0.7,0,1.4-0.1,2.1-0.1c4.6-3.5,9.5-5.6,15.5-5c6.4,0.6,10.4,3.7,12.3,10.2c-3.1-0.6-4.9-3-7-5
		c-4.2-2.2-8.6-1.9-13-1c-1.7,0.7-3.3,1.4-5,2C148.9,36.2,147,36.9,146.1,33.1z"/>
	<path class="st45" d="M289.1,46.1c-4,0.9-7.8,2.4-12,2c-4.7-2.1-10-2.1-14.8-4c0-1.7,0-3.3,0-5c4-2.4,8.1-1.7,12.3-0.7
		c1.1,0.6,1.4,1.6,1.5,2.8c-0.4,2.3,0.2,3.4,2.9,3.8c5.4,0.8,9.4-2.3,13.8-4.1c0.5,0.2,0.7,0.6,0.9,1.1
		C293.6,44.9,290.9,45.1,289.1,46.1z"/>
	<path class="st46" d="M262.2,53.1c5.9,0.5,11.9-1,17.8,0.8c-5.4-1-5.1,2.7-5.1,6.2c-4.2,2.2-8.4,2.2-12.7,0
		C262.2,57.7,262.2,55.4,262.2,53.1z"/>
	<path class="st47" d="M260,108.4c1.5,0.4,3.1,1.1,2.4,3c-0.4,1.2-1.6,0.4-2.5,0c-1.9-0.8-4-1.2-5.4,0.8c-1.7,2.5-1.7,5.3-0.4,8.1
		c1.2,2.5,3.2,2.4,5.5,1.8c0.9-0.2,1.9-0.1,3.1-0.2c-0.8,3.5-3.6,3.5-5.8,3.6c-2.6,0.1-4.8-1.2-6-3.7c-2.5-5-0.8-10.5,4.2-13.6
		C256.7,108.8,258.4,108.6,260,108.4z"/>
	<path class="st48" d="M293.4,113.5c0-3.2,0-6.3,0-9.5c0-1.4,0.1-2.8,1.9-2.8c1.8,0,1.4,1.6,1.4,2.6c0,6.1,0,12.3,0,18.4
		c0,1.3,0.3,3-1.8,2.8c-1.9-0.2-1.5-1.9-1.5-3.1C293.4,119.1,293.4,116.3,293.4,113.5z"/>
	<path class="st49" d="M199.1,31.1c-3.1,1.5-7.2,1.1-9,5c-0.6,0.5-1.4,0.7-2.2,0.7c-0.5-0.1-1-0.4-1.3-0.8
		c5-10.5,30.2-11.3,35.2,0.2c-2.4,1.2-3.1-1.5-4.8-2c-2.3-1-4.7-2-7-3C206.4,30.2,202.7,30.3,199.1,31.1z"/>
	<path class="st50" d="M101.1,37.8c9.6-1.2,19.3-1.5,28.9,0.2c0,0,0,0,0,0c-1,0.8-2.2,0.5-3.3,0.5c-6.6,0.1-6.6,0.1-7.7,5.9
		c-3.5,1.7-7.1,1.6-10.7,0.1c-0.1-0.1-0.3-0.3-0.3-0.4c0.3-4.5-2-6.3-6.2-6C101.5,38.2,101.3,38.1,101.1,37.8z"/>
	<path class="st51" d="M385.1,15.1c-0.4-7.1,0.4-7.8,6.9-7.7c6,0.1,5.3,3.9,4.9,7.7C393,17.3,389,17.3,385.1,15.1z"/>
	<path class="st52" d="M242.2,75.3c-0.1-3.1-0.1-6.1-0.2-9.2c-1.8-2.3-1.3-5-1.3-7.7c0-1.6-0.1-3.3,0-4.9c0.1-2.5-1.6-2.9-3.5-3
		c-2.1-0.2-4.3,0.3-6-1.4c0-1.7,0-3.3,0-5c5-2.4,9.7-2.2,12.8,0.7c-1.9,3-0.8,6.4-1,9.6C242.5,61.3,243.9,68.3,242.2,75.3z"/>
	<path class="st53" d="M162.1,40.1c3.6-1.7,7.1-1.7,10.6,0.1c1.4,0.7,2.7,0.8,4.2,0.9c0.4,1.7,0.5,3.3,0.2,5
		c-3.5,2.3-7.3,1.5-11,0.9c-1.3-0.5-1.3-1.8-1.7-2.8C163.6,42.8,162.8,41.4,162.1,40.1z"/>
	<path class="st54" d="M385.1,15.1c3.9,0,7.9,0,11.8,0c0,2.3,0,4.7,0,7c-3.9,2.2-7.9,2.2-11.8,0C385.1,19.7,385.1,17.4,385.1,15.1z"
		/>
	<path class="st55" d="M336.1,71.1c-1-0.3-2-0.7-3-1c-0.2-2.2,1.7-2.4,3-3.2c3.8-1,7.4-0.8,10.9,1.2c0,2.3,0.1,4.6,0.1,6.9
		c-3,1.8-6,2-9.1,0.3C337.3,73.9,338,71.9,336.1,71.1z"/>
	<path class="st56" d="M165.2,46.1c3.9,0,7.8-0.1,11.8-0.1c0,2.3,0,4.7,0,7c-4,2.2-7.9,2.2-11.9,0c0-1.3-0.1-2.6-0.1-3.9
		C164.5,48.1,164.2,47.1,165.2,46.1z"/>
	<path class="st41" d="M148.1,108.2c6.2,3.9,3.8,10,3.7,15.3c0,3.8-3.2-0.3-4.6,0.9c-0.7-0.4-0.8-1.1-0.8-1.8
		c0.3-1.6,1.6-3.1,0.9-4.9c-1.2-1.2-3.5-0.1-4.5-1.9c0.7-0.8,1.8-0.7,2.7-0.8c1.1-0.2,2.9,0.8,2.9-1.3c0-1.9-1.1-3-3.1-3
		c-0.7,0-1.3,0.2-1.9,0.2c-1.4-0.2-3.2,2.1-3.8,0.2c-0.7-2.3,1.7-2.6,3.5-2.9C144.7,108.8,146.4,108.8,148.1,108.2z"/>
	<path class="st57" d="M244,44.8c-4.2-1.6-8.6-0.4-12.8-0.7c0-1.7,0-3.3,0-5c6,0.5,12.1-1.2,17.9,1C247.4,41.6,245.7,43.2,244,44.8z
		"/>
	<path class="st58" d="M396.9,53.1c0,1.7,0,3.3,0,5c-0.7,0.8-1.7,1.2-2.7,1.1c-3.9-0.3-6.1,1.8-7.5,5.1c-1.2,1.4-2.4,2.9-4.6,2
		c-1-2.7,2.5-4.5,1.5-7.2c0.1-2.3-0.3-4.7,1.6-6.5C389.2,51.2,393.1,50.7,396.9,53.1z"/>
	<path class="st59" d="M341.1,34.1c-7.3,0-14.7,0.4-22-0.2c-3.2-0.2-5.6,3.8-8.8,1.2c0-0.3,0-0.7,0-1c3.2-2.3,6.8-3.4,10.5-4.2
		c4.3-0.4,8.6-0.5,12.8,0C336.5,30.2,340.1,30,341.1,34.1z"/>
	<path class="st60" d="M177,107.8c0-1.3-0.5-2.9,1.6-2.8c2,0.1,1.3,1.8,1.5,3c2.2,2.3,5.5,0.1,7.9,1.7c0.4,0.4,0.4,0.9,0.1,1.4
		c-10-0.4-7.7-1-8,7.6c0,1.4-0.2,2.9,0.9,4.2c1,0.6,2.4,0.2,3.3,1.2c-4.2,2.1-6.7,1.1-7.2-3.1c-0.3-2.1-0.3-4.3-0.1-6.4
		c0.2-2.3-0.6-3.6-2.6-4.5C175,109,176.5,109,177,107.8z"/>
	<path class="st61" d="M61.2,63.1c0.7,0,1.3,0.1,2,0c5.2-1,8.2,1.3,9.9,6c0.4,0.2,0.5,0.4,0.4,0.7c-0.1,0.2-0.2,0.3-0.4,0.3
		c-3.9,0-7.9,0-11.8,0C61.2,67.7,61.2,65.4,61.2,63.1z"/>
	<path class="st58" d="M135.2,56.1c0.2-1,0.5-2,0.7-3c3.5-2.2,7.2-2,10.9-0.4c1.2,1.6,0.5,3.4,0.6,5.1c-1.4,2.1-3.7,1.6-5.7,1.7
		c-2.7,0.1-4.4,1-4.3,4c0.1,2.3,0.1,4.6,0,6.8c0,1.8,0,3.7-1.5,5C134.2,68.9,135.6,62.5,135.2,56.1z"/>
	<path class="st62" d="M136,44.1c0-1.7,0-3.3,0-5c5.6,0.5,11.4-0.9,17,0.8c-2.7,0.2-2.7,3.3-4.6,4.3C144.3,46.2,140.1,46.5,136,44.1
		z"/>
	<path class="st63" d="M199.1,69.1c-0.3,0-0.6-0.1-1-0.1c-0.8-0.1-1.3-0.5-1.7-1.2c-0.6-1.6-1.6-3.1-0.2-4.8c6.3,7.1,14,4.8,21.6,3
		c1.8-0.4,4.3-2.9,5.2,1.2c-3.9,2.6-8.5,2.9-12.8,4.2c-2.3-0.5-4.6-0.1-6.9-0.4C201.7,70.5,200,70.7,199.1,69.1z"/>
	<path class="st64" d="M290,25.1c3.1-2.7,8-3,11-0.5c1.3,1,2.2,2.5,4.1,2.4c1.2,3.4,1.2,6.8-0.1,10.1c-0.9-0.7-1.2-1.7-1.3-2.8
		c0.1-2.7-1.3-4-3.9-4.5c-2.5-0.5-5.2-0.2-7.7-0.9C290.5,28.2,289.6,27.1,290,25.1z"/>
	<path class="st48" d="M288.2,113.4c0,3.2,0,6.3,0,9.5c0,1,0,2.1-1.4,2.1c-1.3,0-1.6-1-1.6-2.1c0-6.7,0-13.3,0-20
		c0-0.8,0-1.7,1.2-1.8c1.3-0.1,1.8,0.6,1.8,1.7C288.2,106.4,288.2,109.9,288.2,113.4z"/>
	<path class="st23" d="M177,70.1c0.4,6.2,0.4,6.2-5.9,6.2c-6.4,0-6.4,0-5.9-6.2C169.1,67.8,173,67.8,177,70.1z"/>
	<path class="st65" d="M320.1,31.1c-3.2,1.2-6.4,2.6-9.8,3.1c1.7-4.3,5.8-4.9,9.4-5.3c8.6-1.2,17.5-3.2,24.7,4.2
		c-0.8,0.8-1.8,0.7-2.7,0.2C334.8,29.2,327.4,30.4,320.1,31.1z"/>
	<path class="st66" d="M330.1,71.1c-2.7,1.8-6.2,1.8-8.4,0.4c-4.1-2.7-8.4-2.4-12.8-2.4c-1-0.8-0.9-1.9-0.8-3c0.1-1,0.2-2,0.2-3.1
		c5.8-2.3,7.2-1.9,11.7,3.7C322.3,70.7,327,68.8,330.1,71.1z"/>
	<path class="st67" d="M382.1,41.9c4.2-5,9.8-2,14.8-2.8c0,1.7,0,3.3,0,5c-3.5,2.5-7.6,0.9-11.4,1.6
		C383.4,45.3,381.6,44.6,382.1,41.9z"/>
	<path class="st68" d="M119,110.1c-7.8,1-6.8,6.5-6.8,11.7c0,1.3,0.8,3.5-1.7,3.3c-1.9-0.1-1.3-2-1.4-3.2c-0.1-1.8,0-3.7,0-5.5
		C109.2,107.2,109.2,107.2,119,110.1z"/>
	<path class="st48" d="M159.9,102.1c0.1,6.7,0.1,13.3,0.1,20c0,1.2,0.6,3-1.5,3c-2,0-1.6-1.8-1.6-3c0-6.7,0.1-13.3,0.2-20
		C158,101.2,159,101.3,159.9,102.1z"/>
	<path class="st69" d="M353.1,55.1c0-1.3,0-2.7,0-4c3.7-2.3,7.5-1.6,11.4-0.7c2,1.2,1.6,3.5,2.4,5.3c0.5,2.1,1.5,4.1,0.7,6.3
		c-0.4,0.7-1,1.2-1.8,1.4c-0.3-0.1-0.8-0.1-0.9-0.4c-1.9-4.8-5.4-7.2-10.6-7.1C353.9,55.9,353.5,55.4,353.1,55.1z"/>
	<path class="st37" d="M136,75.3c0.1-1.7,0.1-3.5,0.2-5.2c3.6-2.3,7.2-2,10.9-0.3c0.8,1.8,0.6,3.7,0.2,5.5
		C143.5,76.8,139.7,76.8,136,75.3z"/>
	<path class="st70" d="M274.9,39.1c-4.2,0-8.4,0-12.7,0c0-1.7,0-3.3,0-5c4.3-2.4,8.6-2,12.9-0.3C276.4,35.6,276.6,37.4,274.9,39.1z"
		/>
	<path class="st71" d="M274.9,63.1c0,1.7,0,3.3,0,5c-4.2,2.3-8.4,2.3-12.7,0c0-1.7,0-3.3,0-5C266.5,60.9,270.7,60.9,274.9,63.1z"/>
	<path class="st58" d="M73.9,58.1c-4.2,0-8.4,0-12.7,0c0-1.7,0-3.3,0-5c4.2-2.3,8.4-2.3,12.7,0C73.9,54.7,73.9,56.4,73.9,58.1z"/>
	<path class="st2" d="M366.9,110.5c-7.9,0.6-6.8,5.8-6.9,10.5c0,1.4,1.1,3.9-1.4,4c-2.6,0.1-1.5-2.4-1.6-3.9c-0.2-2,0-4,0-6
		C356.9,107.4,358.1,106.7,366.9,110.5z"/>
	<path class="st72" d="M386.1,33.1c0-1.1,0.2-2.2-1-3c0-1.7,0-3.3,0-5c3.9-2.2,7.9-2.2,11.8,0c0,1.7,0,3.3,0,5
		c-2.5,2.4-6.3,0.3-8.8,2.5C387.5,33,386.9,33.4,386.1,33.1z"/>
	<path class="st73" d="M365.8,56.1c-1.3-1.5-0.6-3.3-0.8-5c-1.3-2-3.4-1.5-5.3-1.6c-2.2-0.2-4.6,0.3-6.5-1.4c0.1-0.7,0.1-1.3,0.2-2
		c4.3-2.4,8.9-3.7,13.9-3C367.5,47.5,368.7,52,365.8,56.1z"/>
	<path class="st74" d="M387.1,32.1c2.6-4.1,6.6-1.1,9.8-2c0,2,0,4,0,6c-3.9-0.9-7.9,1.4-11.8,0C385.3,34.5,387.8,34.1,387.1,32.1z"
		/>
	<path class="st71" d="M382.1,66.1c1.7,0.1,2.6-1.5,4-2c3.3-3.6,7-3,10.8-1c0,1.7,0,3.3,0,5c-4.9,2.5-9.7,1.6-14.5-0.4
		C381.9,67.2,381.8,66.7,382.1,66.1z"/>
	<path class="st75" d="M396.9,70.1c0.3,6.5-3,8.2-9.8,4.9c-1-5.6-0.7-5.9,4.7-5.9C393.6,69.1,395.4,68.7,396.9,70.1z"/>
	<path class="st58" d="M165.1,53.1c4,0,7.9,0,11.9,0c0,1.7,0,3.3,0,5c-4,2.2-7.9,2.2-11.9,0C165.1,56.4,165.1,54.7,165.1,53.1z"/>
	<path class="st52" d="M385,45.2c3.8-2.5,8-0.6,11.9-1.2c0,1.7,0,3.3,0,5c-3.8,2.3-7.7,1.8-11.7,0.5C383.9,48.2,383.9,46.7,385,45.2
		z"/>
	<path class="st76" d="M165.1,58.1c4,0,7.9,0,11.9,0c0,1.7,0,3.3,0,5c-4,2.2-7.9,2.2-11.9,0C165.1,61.4,165.1,59.7,165.1,58.1z"/>
	<path class="st14" d="M211.1,109.3c0.2-0.3,0.4-0.4,0.7-0.3c1.8-0.5,3.5-0.7,5.3,0.1c2.5,2.6,4.3,11.6,3,14.8
		c-0.4,0.9-1,1.3-1.9,1.1c-1.1-0.2-1.2-1.1-1.2-1.9c0-2.3-0.1-4.7,0-7c0-3.9-1.5-6-5.8-5C210.5,110.6,210.5,109.9,211.1,109.3z"/>
	<path class="st77" d="M305,34.1c0,1,0.1,2.1,0.1,3.1c0,1.1,0.1,2.3-0.9,3.1c-3.5,0-7.2,0.9-10.5-1.1c-1.7-5.2-1-6.3,4.2-6.5
		C300.3,32.5,302.9,32.2,305,34.1z"/>
	<path class="st52" d="M262.2,44.1c5.5-0.6,10.5,0.2,14.8,4c-5-0.2-9.8,1.7-14.8,1C262.2,47.4,262.2,45.7,262.2,44.1z"/>
	<path class="st78" d="M197.1,68c0.3,0.3,0.7,0.6,1,1c-2.9,2.3-5.8-2.1-8.8,0c-0.7,0.5-1.8,0.4-2.4,1.3c-1.8-1.2-2.7-2.9-3-5
		c1.7-4.2,5-2.5,7.9-2C194.7,63.7,195.7,66,197.1,68z"/>
	<path class="st52" d="M136,44.1c4.1,0,8.3,0.1,12.4,0.1c-0.2,0.3-0.4,0.6-0.5,0.9c-0.9,1.4,0.5,3.6-1.5,4.7
		c-3.6,0.9-7.1,1.5-10.4-0.8C136,47.4,136,45.7,136,44.1z"/>
	<path class="st79" d="M433.1,110.9c-3.1,0.7-4.4,2.6-4.1,5.8c0.1,2,0,4,0,6c0,1.2,0,2.5-1.6,2.4c-1.7-0.1-1.4-1.6-1.4-2.6
		c0-3.5,0.1-7,0-10.4c-0.1-3.7,1.7-3.3,4-2C431.1,109.7,432.5,108.7,433.1,110.9z"/>
	<path class="st80" d="M188.1,39.1c3.3-0.3,6.3-3.9,10-1.1c-0.3,2.1-0.1,4.5-2.9,5.2c-2.7-3.2-4.7-3-8.1,0.9c-0.8,2.2-2.3,3.4-4.8,3
		c-0.3-1.5,0.5-2.7,0.9-4C184.6,41.5,185,38.6,188.1,39.1z"/>
	<path class="st81" d="M381.1,69.1c-1.3,0.3-2.7,0.7-4,1c-2,0.8-4,0.8-6,0c-0.7,0-1.3,0-2,0c-4.2-2.8-9.6-1.9-14-4
		c-0.9-0.8-1.1-1.9-1-3c2.9-2.1,6-1.5,9.1-0.9c1.2,0.6,2.1,1.7,3.3,2.2c2.9,3,6.5,3.8,10.5,3.2c1.3-0.2,2.6-0.6,3.9,0.2
		C381.4,68.1,381.4,68.6,381.1,69.1z"/>
	<path class="st82" d="M262.2,22.1c4.4,0,8.7,0.1,13.1,0.1c1,1.5,0.9,3-0.3,4.3c-4.3,1.5-8.6,2-12.7-0.4
		C262.2,24.7,262.2,23.4,262.2,22.1z"/>
	<path class="st83" d="M262.2,68.1c4.2,0,8.4,0,12.7,0c0,1.3,0,2.7,0,4c-4.2,2.3-8.4,2.3-12.7,0C262.2,70.7,262.2,69.4,262.2,68.1z"
		/>
	<path class="st84" d="M61.2,26.1c4.2,0,8.4,0,12.7,0c0,1.3,0,2.7,0,4c-4.2,2.2-8.4,2.2-12.7,0C61.2,28.7,61.2,27.4,61.2,26.1z"/>
	<path class="st74" d="M274.9,34.1c-4.2,0-8.4,0-12.7,0c0-1.3,0-2.7,0-4c4.2-2.4,8.5-2,12.9-0.3C276.2,31.2,276.3,32.7,274.9,34.1z"
		/>
	<path class="st84" d="M274.9,30.1c-4.2,0-8.4,0-12.7,0c0-1.3,0-2.7,0-4c4.2,0,8.4,0,12.7,0C276.2,27.4,276.2,28.7,274.9,30.1z"/>
	<path class="st56" d="M73.9,53.1c-4.2,0-8.4,0-12.7,0c0-1.3,0-2.7,0-4c4.2,0,8.4,0,12.7,0C73.9,50.4,73.9,51.7,73.9,53.1z"/>
	<path class="st4" d="M262.2,72.1c4.2,0,8.4,0,12.7,0c0.6,2.7-0.4,4.1-3.2,4.1c-2.1,0-4.2,0-6.4,0C262.5,76.2,261.6,74.7,262.2,72.1
		z"/>
	<path class="st85" d="M289.1,46.1c1.2-1.5,3.3-2,4-4c4.8-3,7.3-2.8,9.9,0.8c-0.8,1.6-1,3.5-2.9,4.3
		C296.6,44.9,292.7,46.6,289.1,46.1z"/>
	<path class="st86" d="M193.1,64.1c-3,0.6-6.4-1.3-9.1,1.3c-1.3-0.8-0.8-2-0.9-3.1c1-4.4,3-5.2,6.7-3.1c1.7,1,2.2,2.7,3.4,4
		C193.3,63.4,193.3,63.7,193.1,64.1z"/>
	<path class="st76" d="M396.9,63.1c-3.6,0.3-7.4-0.8-10.8,1c0.8-7.1,6.1-6.1,10.8-6C396.9,59.7,396.9,61.4,396.9,63.1z"/>
	<path class="st87" d="M333.1,48.1c4.1-0.8,1.2-4.1,2.1-6.1c1.1-0.1,1.5,0.7,1.8,1.5c0.5,6.6,0.2,6.9-8.8,7.8
		c-3.9,0.6-8.1,0.2-11.7,2.3c-2.3-0.2-4,2.7-6.6,1.3c1-2.1,2.7-3.4,4.9-4.1C320.7,48.5,326.9,48.8,333.1,48.1z"/>
	<path class="st56" d="M385.1,49.1c3.9,0,7.9,0,11.8,0c0,1.3,0,2.7,0,4c-3.9,0-7.9,0-11.8,0C383.9,51.7,383.9,50.4,385.1,49.1z"/>
	<path class="st88" d="M177,70.1c-4,0-7.9,0-11.9,0c0-1.3,0-2.7,0-4c4-2.2,7.9-2.2,11.9,0C177,67.4,177,68.7,177,70.1z"/>
	<path class="st89" d="M355.1,66.1c5.1,0,10.4-0.9,14,4c-3.7,0.5-7.6-1.2-11.1,1.2C356.1,70,355.1,68.3,355.1,66.1z"/>
	<path class="st90" d="M433.1,110.9c-0.9-1.1-2.1-0.8-3.3-0.9c3.6-1.4,7.2-3.1,9.3,2c0.7,4.3,0.8,8.5-0.1,12.8c-0.6,0-1.2,0-1.9,0
		c-1.4-3.8,0.1-7.9-0.9-11.8C435.5,111.8,434.6,110.9,433.1,110.9z"/>
	<path class="st91" d="M123.1,70.1c-4.8,0-9.5,0.1-14.3,0.1c-1.2-0.8-0.6-2-0.8-3c-0.4-0.5-0.3-1,0.2-1.5c3.9-1.8,7.5-0.8,11.1,1
		C120.6,67.7,123,67.5,123.1,70.1z"/>
	<path class="st48" d="M188,111.1c0-0.3,0-0.7,0-1c0.9-0.9,1.9-0.7,2.8,0c0.1,4.3,0.1,8.6,0.1,12.9c0,1-0.1,2.1-1.5,2.1
		c-1.4,0-1.5-1-1.5-2C188.1,119.1,188.1,115.1,188,111.1z"/>
	<path class="st92" d="M366.1,65.1c-0.9-0.4-1.6-1.1-2-2c-5.6-4.8-5.9-4.8-10.1-0.8c-1.3-2.3-1.1-4.7-0.8-7.2
		c6.6-1.1,11.1,1.3,12.9,8C366.6,63.7,366.6,64.4,366.1,65.1z"/>
	<path class="st86" d="M354,62.3c0.1-2.3,0.6-4.1,3.5-4.2c3.6-0.1,5.8,1.5,6.6,5c-3.3,0-6.6,0-9.9,0C353.9,62.8,353.8,62.6,354,62.3
		z"/>
	<path class="st89" d="M381.1,69.1c0-0.4,0-0.7,0-1.1c-0.2-0.8,0.1-1.1,1-0.9c4.9,0.8,9.9,1.3,14.9,1c0,0.7,0,1.3,0,2
		c-1.6,0-3.3,0.2-4.9,0c-4-0.6-5.5,1.1-4.9,4.9c-1.4-1,0.4-3.6-2.1-4.1C383.7,70.3,382.4,69.7,381.1,69.1z"/>
	<path class="st93" d="M336.1,43.1c-0.3-0.3-0.6-0.7-0.9-1c-0.3-0.7-0.7-1.3-1-2c4.6-1.6,9.1-2,12.8,2.1
		C343.7,45.8,339.9,45,336.1,43.1z"/>
	<path class="st94" d="M119.8,59c0,1,0.1,2,0.1,3c-0.4,1-1.1,1.7-2.3,1.5c-0.5-0.1-0.9-0.3-1.3-0.6c-2.2-2.9-6.2-0.5-8.6-3
		c-0.2-1-0.3-2,0.1-3c3.4-2.2,7.1-1,10.6-0.6C119.7,56.9,119.4,58.1,119.8,59z"/>
	<path class="st95" d="M142.8,115.9c1.6,0.8,3.8-1.1,5,1.3c-0.4,0.6-1,0.9-1.6,1.2c-1,0.5-2.4,0.9-2.3,2.3c0.1,2.1,2.4,0.5,3.1,1.6
		c0,0.7,0.1,1.4,0.1,2.2c-3.2,1.4-6.3,1.7-8-1.9C137.5,119.1,139.6,117.1,142.8,115.9z"/>
	<path class="st96" d="M245.1,34.1c-1.1,0.5-2.1,1.1-3.3,0.8c2.9-5.4,7.4-7.7,13.5-6.9c1.4,0.2,2.7,0.3,2.9,2.1
		c-2.5,1.9-5.7,0.4-8.4,1.5C248.1,32.3,246.5,33,245.1,34.1z"/>
	<path class="st86" d="M274.9,63.1c-4.2,0-8.4,0-12.7,0c0-1,0-2,0-3c4.2,0,8.4,0,12.7,0C274.9,61.1,274.9,62.1,274.9,63.1z"/>
	<path class="st97" d="M61.2,30.1c4.2,0,8.4,0,12.7,0c0,1,0,2,0,3c-4.2,0-8.4,0-12.7,0C61.2,32.1,61.2,31.1,61.2,30.1z"/>
	<path class="st98" d="M182.3,47c1.6-1,3.2-2,4.8-3c1,0,1.9,0.1,2.9,0c3.9-0.3,4.7,0.9,2.1,4c-3.3,0.8-6.6,0.8-9.9,0
		C182.2,47.7,182.2,47.4,182.3,47z"/>
	<path class="st99" d="M396.9,25.1c-3.9,0-7.9,0-11.8,0c0-1,0-2,0-3c3.9,0,7.9,0,11.8,0C396.9,23.1,396.9,24.1,396.9,25.1z"/>
	<path class="st100" d="M210,38.2c2.9-1.9,5.8-1.7,8.8,0c1.7,1,3,2.6,5.1,2.9c0.6,1.2,1.2,2.5,0.9,4c-1.8-0.9-3.5-1.9-4.8-3.5
		c-2.5-3.1-5.5-3.2-8.9-1.5C210.2,39.8,209.8,39.3,210,38.2z"/>
	<path class="st101" d="M353.2,48.1c2.9,0,5.8,0.1,8.7,0c2.2-0.1,3.4,0.7,3.1,3.1c-4,0-7.9,0-11.9,0
		C353.1,50.1,353.2,49.1,353.2,48.1z"/>
	<path class="st102" d="M177,66.1c-4,0-7.9,0-11.9,0c0-1,0-2,0-3c4,0,7.9,0,11.9,0C177,64.1,177,65.1,177,66.1z"/>
	<path class="st78" d="M199.1,69.1c1.3,0.6,2.6,1.1,4,1c2.2,1.3,4.8-0.2,7.1,0.9c4.3-1.3,8.5-2.6,12.8-3.9c0,0.3,0,0.7,0,1
		c-5.5,3-11.5,4.1-17.7,3.9C202.8,71.9,200.1,72.1,199.1,69.1z"/>
	<path class="st10" d="M108.1,57.1c0,1,0,2,0,3c0.7,0.9,1.1,1.8,1.1,3c0,1.1-0.3,2.1-1,3c-0.1,0.4-0.2,0.7-0.3,1.1
		c-1.8-7-0.8-14.2-0.6-21.2c0.1-4.5-0.4-7.5-5.5-7.8c4.9-1,7.2,0.8,6.4,5.9c1.2,1.4,1.3,3.1,1.3,4.8c0,1.4,0.1,2.8,0,4.2
		C109.4,54.6,109.1,55.9,108.1,57.1z"/>
	<path class="st103" d="M118.1,63.1c0.6-0.3,1.2-0.7,1.9-1c0.4,1,0.8,2,1.2,2.9c1.1,2.4,3.2,1.9,5.1,2.1c1.6,0.2,3.2-1.4,4.8,0
		c0,0.7,0,1.3,0,2c-2.7,0-5.2,1.5-8,1c-1.3-0.7-2.7-1.3-4-2C118.5,66.4,114.3,65.6,118.1,63.1z"/>
	<path class="st104" d="M320.1,31.1c6.8-1.8,13.5-1.7,20.1,0.6c1.4,0.5,2.6,1.5,4.2,1.3c1.1,0.8,1.8,1.7,1.8,3.1
		c-2.6,1.6-3.3-1.5-5.1-2c0,0,0,0,0,0c-4-3.6-8.8-3-13.6-3C325,31,322.5,31.1,320.1,31.1z"/>
	<path class="st105" d="M262.3,15.1c7.4,0,14.9,0,22.3,0c2.7,0,5.3,0.2,7.4,2c-9.9-1.7-19.9-0.8-29.8-1
		C262.3,15.7,262.3,15.4,262.3,15.1z"/>
	<path class="st33" d="M194.9,59c-2-3.4,0-4,2.8-4c8.2,0,16.5,0.1,24.7,0.1c-7.8,1.7-15.7,0.4-23.5,0.7
		C196.6,56,194.5,55.8,194.9,59z"/>
	<path class="st10" d="M119.8,59c-0.3-0.7-0.6-1.3-0.8-2c-0.9-1.1-1.2-2.5-1.3-3.9c-0.1-1.4-0.1-2.8,0-4.2c0-1.7,0.1-3.4,1.3-4.8
		c-0.8-4.9,1.2-6.9,6.1-6.1c1.6,0.3,3.2,0,4.8,0c-0.5,0.8-1.3,0.9-2.2,0.9c-7.9,0.6-7.8,0.6-7.8,8.7C120,51.4,119.9,55.2,119.8,59z"
		/>
	<path class="st106" d="M61.2,36.1c2.3,0,4.6,0.1,7,0c2.2-0.1,3,1,2.9,3c-3.3,0-6.6,0-9.8,0C61.2,38.1,61.2,37.1,61.2,36.1z"/>
	<path class="st62" d="M147,49.1c0.2-1.3-0.4-2.9,0.9-4c0,8.6,0.1,17.3,0.1,25.9c0,1.4,0.6,3-0.8,4.2c-0.1-1.7-0.2-3.5-0.2-5.2
		c-1.6-2.1-1.3-4.5-1.3-6.9c0-1.8,0-3.6,1.3-5.1c0-1.7,0-3.3,0-5C146,51.7,146,50.4,147,49.1z"/>
	<path class="st52" d="M224.9,49.1c-3.6,0-7.3-0.3-10.8,1c2.1-5.4,6.8-3.8,10.8-4C224.9,47.1,224.9,48.1,224.9,49.1z"/>
	<path class="st107" d="M245.1,34.1c3.5-4.3,8.3-3.9,13.1-4c0.8,2.7,1.1,5.5,0,8.3c-0.4-7.1-4.4-8.6-11.1-4.2
		C246.4,34.1,245.7,34.1,245.1,34.1z"/>
	<path class="st108" d="M303,42.8c-3.1-3.2-6.6-0.9-9.9-0.8c0-0.3,0-0.7,0-1c-0.6-1.2-0.7-2,1-2c3.4,0.6,7-1.3,10.2,1.2
		C304.2,41.3,304.1,42.3,303,42.8z"/>
	<path class="st109" d="M73.1,70.1c0-0.3,0-0.7,0-1c8.6,0,17.2,0,25.8,0c0,0.3,0,0.7,0,1C90.3,70.1,81.7,70.1,73.1,70.1z"/>
	<path class="st35" d="M74.1,23c5.1-2.2,10.4-0.5,15.6-0.9c2.5-0.2,5,0,7.4,0c-5.8,1.5-11.8,0.3-17.6,0.7
		C77.7,22.9,75.9,22.9,74.1,23z"/>
	<path class="st110" d="M391.1,110.1c9.3,0,8-0.8,8.1,7.8c0,2.3,0,4.6,0,7c-1.8-2-0.8-4.4-0.8-6.5c-0.2-7.3-0.1-7.3-7.3-7.4
		c-0.2-0.2-0.3-0.4-0.2-0.6C390.9,110.2,391,110.1,391.1,110.1z"/>
	<path class="st95" d="M190.9,110.1c-0.9,0-1.9,0-2.8,0c-2.6-0.9-6.2,2.1-8-2.1c2.3,0.1,4.6,0.1,6.9,0.2
		C188.6,108.2,190.4,107.8,190.9,110.1z"/>
	<path class="st111" d="M193.1,64.1c0-0.3,0-0.7,0-1c0-1.4-0.1-2.9,1.9-3c0.4,1,0.8,1.9,1.1,2.9c0.3,1.7,0.7,3.4,1,5.1
		C195.3,67.2,194.1,65.8,193.1,64.1z"/>
	<path class="st112" d="M333.1,48.1c-6.1,0.9-12.2,1.9-18.2,2.8C320.5,47.4,326.8,47.8,333.1,48.1z"/>
	<path class="st113" d="M131,67.1c-3.5,0.2-7.7,3.8-9.9-2.1c2.2,1.6,4.7,1.4,7.1,0.8C129.5,65.5,130.9,64.8,131,67.1z"/>
	<path class="st59" d="M355.2,39.1c3.5-0.3,4.3-4.8,7.8-5c0.6,1.1-0.4,1.5-1,2c-3.1,0.9-3.6,5.9-7.8,5
		C354.6,40.4,354.9,39.8,355.2,39.1z"/>
	<path class="st110" d="M401,124.9c0.1-5.3,0.1-10.6,0.2-15.9C402.2,114.3,402.6,119.6,401,124.9z"/>
	<path class="st114" d="M309.9,55c2-0.6,4.1-1.3,6.1-1.9c0.6,0.7,0.6,1.3,0,2c-3.3-0.7-4.5,3.6-7.8,3C308.4,56.8,309,55.8,309.9,55z
		"/>
	<path class="st115" d="M168.1,117.5c-1.5-0.6-4,0.7-3.7-1.6c0.3-2,2.8-0.9,4.3-1c1.1,0,3.3-0.7,3.3,1
		C171.8,118.6,169.1,116.5,168.1,117.5z"/>
	<path class="st116" d="M401.1,109c-2.5,0-5-0.1-7.5,0.1c-2.9,0.2-4-1-3.5-3.8c0.9,1.9,1.9,3.2,4.5,2.9
		C396.7,108,399.2,107.2,401.1,109z"/>
	<path class="st116" d="M384.9,110.1c2.3-0.3,3.3,0.6,3.2,2.9c-0.1,3.1-0.1,6.1-0.1,9.2c-1.4-2.5-0.8-5.2-0.7-7.8
		C387.3,112.4,386.7,111.1,384.9,110.1z"/>
	<path class="st117" d="M188.1,39.1c-1.6,1.3-3.2,2.7-4.9,4c0-1.6,0.6-2.9,1.6-4.1c1.1-0.9,2-2.2,3.3-2.9c0.7,0,1.3,0,2,0
		C189.4,37.1,188.7,38.1,188.1,39.1z"/>
	<path class="st59" d="M341.1,34.1c1.7,0.7,3.4,1.3,5.1,2c0.9,0.8,1,1.9,0.9,3C344.1,38.6,342.7,36.2,341.1,34.1z"/>
	<path class="st118" d="M439,124.8c0-4.3,0.1-8.5,0.1-12.8C440.2,116.3,440.4,120.6,439,124.8z"/>
	<path class="st119" d="M381,124.8c0-4.3,0.1-8.6,0.1-12.8C382.2,116.2,382.4,120.5,381,124.8z"/>
	<path class="st116" d="M391.1,110.1c0,0.3,0,0.6,0,0.9c-0.1,3.7-0.1,7.4-0.2,11C389.6,118,389.3,114,391.1,110.1z"/>
	<path class="st120" d="M206.3,113.1c1.8,3.8,0.4,7.8,0.8,11.7C205.4,121,206.8,117,206.3,113.1z"/>
	<path class="st121" d="M448.7,123c-0.1,1.4-0.7,2.1-1.9,2.2c-1.5,0.1-2.1-0.7-2-2.1c0-0.7,0-1.9,1.2-1.4
		C447,122,448.4,121.7,448.7,123z"/>
	<path class="st122" d="M400.2,101.8c1.1,0.2,1.9,0.7,1.7,2c-0.1,1-0.9,1.4-1.8,1.4c-1.2,0-2-0.5-2-1.7
		C398.2,102.2,399.1,101.8,400.2,101.8z"/>
	<path class="st123" d="M60.1,109.1c-3.1,1.7-6.1-0.9-9.2-0.1C54,106.1,57,108.7,60.1,109.1z"/>
	<path class="st118" d="M436.3,113.1c1.8,3.8,0.5,7.8,0.9,11.8C435.4,121,436.7,117,436.3,113.1z"/>
	<path class="st120" d="M209,124.8c0.4-3.9-0.9-7.9,0.8-11.7C209.4,117,210.8,121,209,124.8z"/>
	<path class="st124" d="M182.2,48.1c3.3,0,6.6,0,9.9,0c0,0.3,0,0.7,0,1c-3.3,0-6.6,0-9.9,0C182.2,48.7,182.2,48.4,182.2,48.1z"/>
	<path class="st125" d="M418.9,110.1c-2.9-1.3-6.1-0.9-9.2-1.1C413.1,107.4,416.2,106.8,418.9,110.1z"/>
	<path class="st126" d="M217,34.1c1.6,0.7,3.2,1.3,4.8,2c0.8,0.8,1.4,1.7,1.3,3C221,37.5,218.4,36.6,217,34.1z"/>
	<path class="st119" d="M378.2,112.1c2,6.8-3.3,3-5.5,3.8C374.1,114,378.9,117,378.2,112.1z"/>
	<path class="st127" d="M73.3,102.2c-1.4,0-2.7-0.1-4.1-0.1C70.6,100,72,99.4,73.3,102.2z"/>
	<path class="st128" d="M82.2,102.1c-1.4,0-2.8,0-4.2-0.1C79.4,100,80.8,99.2,82.2,102.1z"/>
	<path class="st129" d="M191.1,103.9c-0.1,1.1-0.8,1.3-1.7,1.3c-0.9,0-1.7-0.5-1.6-1.4c0.1-0.6,1.1-1.2,1.7-1.3
		C190.4,102.3,190.9,103.1,191.1,103.9z"/>
	<path class="st130" d="M134.1,122.3c-1.8,1.5-3.7,2.3-6.1,1.5c-0.1,0-0.1-0.3-0.1-0.4c0-0.1,0.1-0.3,0.2-0.4
		C130.1,122.7,132.1,122.5,134.1,122.3z"/>
	<path class="st42" d="M304.9,115.9c1.6,0.7,3.8-1.1,4.9,1.2c-0.8,0.7-1.7,0.7-2.5,0c-1.2-0.1-2.4-0.2-3.6-0.2
		C304.1,116.6,304.5,116.3,304.9,115.9z"/>
	<path class="st90" d="M211.1,109.3c0,0.6,0,1.3,0,1.9c-0.3,0.3-0.6,0.6-0.9,0.9c-1.3,0-2.1-0.6-2.1-2
		C209.1,109.8,210.1,109.6,211.1,109.3z"/>
	<path class="st131" d="M276.1,108.3c-2.1,1.6-4.6,0.5-6.9,0.8C271.3,107.1,273.7,108,276.1,108.3z"/>
	<path class="st43" d="M177,107.8c0.2,1.9-1.1,2.3-2.6,2.2C173.7,107.5,176,108.4,177,107.8z"/>
	<path class="st132" d="M378.2,109c-2-0.2-4.2,0.7-6-0.7C374.2,108.3,376.4,106.9,378.2,109z"/>
	<path class="st133" d="M348.2,109c-2-0.2-4.2,0.7-6.1-0.7C344.2,108.1,346.3,107.1,348.2,109z"/>
	<path class="st134" d="M184.2,124.1c-1.2-0.1-2.5,0.1-3.3-1.2C182.3,122.7,184.1,121.1,184.2,124.1z"/>
	<path class="st135" d="M159.9,102.1c-0.9,0-1.9,0-2.8,0c-0.2-1,0.4-1.6,1.4-1.5C159.4,100.6,160.1,101,159.9,102.1z"/>
	<path class="st135" d="M321.9,102c-0.9,0-1.8,0-2.7,0c-0.1-1.1,0.5-1.5,1.4-1.5C321.6,100.5,322.1,101,321.9,102z"/>
	<path class="st136" d="M217,109.1c-1.8,0-3.5-0.1-5.3-0.1C213.5,107.7,215.3,107.1,217,109.1z"/>
	<path class="st137" d="M234.2,109c-1.7-0.2-3.6,0.7-5.1-0.8C230.8,108.2,232.8,107.1,234.2,109z"/>
	<path class="st137" d="M131.1,108.3c-1.7,1.1-3.3,1.1-5-0.1C127.7,107.8,129.4,107.8,131.1,108.3z"/>
	<path class="st138" d="M260,108.4c-1.7,1-3.3,1.1-4.9-0.1C256.7,107.8,258.4,107.8,260,108.4z"/>
	<path class="st139" d="M148.1,108.2c-1.7,1.2-3.3,1.3-5,0C144.7,108.2,146.4,108.2,148.1,108.2z"/>
	<path class="st139" d="M310.1,108.3c-1.7,1.2-3.4,1.2-5,0C306.7,107.9,308.4,107.8,310.1,108.3z"/>
	<path class="st125" d="M39.3,109c-1.8,0-3.7,0-5.5,0C35.7,107.5,37.5,107.4,39.3,109z"/>
	<path class="st140" d="M165.2,46.1c-0.1,1-0.2,2-0.2,3c-1-1.6-0.5-3.4-0.7-5.1C164.6,44.8,164.9,45.5,165.2,46.1z"/>
	<path class="st119" d="M372.1,111c1.6-1.4,3.3-1.5,5-0.1C375.4,110.9,373.7,110.9,372.1,111z"/>
	<path class="st141" d="M336.1,71.1c2.8,0.4,1.8,2.6,1.9,4.2c-1.2-0.8-0.3-2.8-1.9-3.3C336.1,71.6,336.1,71.4,336.1,71.1z"/>
	<path class="st126" d="M188.1,36.1c-0.7,1.4-1.7,2.5-3.3,2.9c0.2-1.3,0.9-2.2,1.9-3C187.1,36,187.6,36,188.1,36.1z"/>
	<path class="st142" d="M38.1,122c-1.4,1.9-2.7,1.3-4-0.1C35.4,121.9,36.7,122,38.1,122z"/>
	<path class="st143" d="M330.1,109.1c-1.7-0.3-3.5,0.5-5-0.7C326.8,108.1,328.7,107.1,330.1,109.1z"/>
	<path class="st130" d="M234,123c0.5,2-1.1,0.9-1.7,1c-0.5,0.1-1.9,0.5-1.2-1.1C232.1,123,233.1,123,234,123z"/>
	<path class="st144" d="M15.1,111.9c0.3-1.1,0.6-2.2,0.7-3.4c0.2-1.4,0.6-2.6,2.4-2.4c1.1,0.1,2.4-0.1,3.1,1.1
		c1,1.8-0.2,3.1-1.3,4.3C18.5,112.7,16.9,113.2,15.1,111.9z"/>
	<path class="st145" d="M15.1,111.9c1.7,0.3,3.3,0.2,4.9-0.4C18.6,114,16.9,113.7,15.1,111.9z"/>
	<path class="st146" d="M274.9,30.1c0-1.3,0-2.7,0-4c0.1-1.3,0.3-2.6,0.4-3.9c5.1,0.2,10.4-0.9,14.7,3c0.6,1,1.2,2,1.8,3
		c3.5,6.6,0.2,14.4-7.2,16.5c-2.5,0.7-5,0.5-7.5,0.3c-1.6-0.1-3-0.7-2.3-2.9c0-1,0-2,0-3c0-1.7,0-3.3,0-5
		C274.9,32.7,274.9,31.4,274.9,30.1z"/>
	<path class="st74" d="M146.1,33.1c1.2,2.6,3,2.1,5,1c-0.5,2.7-2.9,2.5-4.1,1.6c-3.5-2.4-7.2-1.4-10.9-1.7c0-2,0-4,0-6
		c3.7-2.2,7.3-2.2,11,0C146.7,29.7,146.4,31.4,146.1,33.1z"/>
	<path class="st147" d="M156.1,32.1c4.5-1.5,8.9-2.1,13,1C164.8,32,160.4,31.9,156.1,32.1z"/>
	<path class="st66" d="M347,68.1c-3.6,0.6-7.3-1.3-10.9,0c-0.8-2.3,0.7-4,1.7-5.8c2.6-2.8,5.3-4.8,9.2-2.2
		C347,62.7,347,65.4,347,68.1z"/>
	<path class="st148" d="M347,60.1c-3.5-0.6-6.4,0.6-8.9,3c-0.8,0.4-1.5,0-2.2-0.5c-0.4-0.4-0.6-0.9-0.8-1.4c-0.4-2.1-0.7-4.3,1-6.1
		c3.6,0,7.3,0,10.9,0C347,56.7,347,58.4,347,60.1z"/>
	<path class="st149" d="M316,55c0-0.7,0-1.3,0-2c3.8-2,7.8-2.2,12-2c2.8-1.3,6.3,0.7,8.9-1.9c3.3-1.6,6.7-2.4,10-0.1
		c0,1.3,0,2.7,0,4c-8.5,0.5-17-2.5-25.6-0.2C319.5,53.4,317.7,54,316,55z"/>
	<path class="st85" d="M337.1,50.1c-2.8,2-6,0.6-9,1c0.5-0.3,1.1-0.9,1.6-0.9c5.7,0.8,7.2-2.2,6.4-7.1c3.6-0.3,7.4,0.8,10.9-1
		c0,1.3,0,2.7,0,4C344.1,48.6,339.3,46,337.1,50.1z"/>
	<path class="st52" d="M337.1,50.1c1.4-6.1,6.3-3.5,9.9-4c0,1,0,2,0,3C343.6,49,340.3,48.9,337.1,50.1z"/>
	<path class="st146" d="M50.7,118.7c0.6-3,0.5-6.2,4.3-6.6c1.7-0.2,2.7,0.7,2.4,2.8c-0.5,3.2-2.1,6-5,6.8
		C50.1,122.3,51.6,119.4,50.7,118.7z"/>
	<path class="st150" d="M104.1,32.1c3.4-1.3,4.7-3.8,4-7.3c-0.6-3.3,0.7-4.5,4-3.7c0.9,0.2,2,0.2,3,0c3.3-0.8,4.6,0.4,4,3.7
		c-0.6,3.6,0.6,6,4,7.3c-3.9,0.9-6.5-3.1-9.5-3.1C110.5,29,108,32.9,104.1,32.1z"/>
	<path class="st151" d="M385.1,49.1c0,1.3,0,2.7,0,4c-0.1,2.2-0.2,4.4-0.2,6.6c-0.7,2.8-2.8,4.4-4.9,6.2c-3.2,1.9-6.5,2.5-10.1,1.1
		c-2.3-0.8-3-2.6-2.8-4.9c-0.5-2-0.9-4-1.4-6c0.6-4.3-0.8-8.8,1.4-13c4.5-6.4,7.5-6.6,14.9-1.2c1,1.1,1.9,2.2,2.9,3.3
		C385,46.5,385.1,47.8,385.1,49.1z"/>
	<path class="st74" d="M362.1,36.1c0.3-0.7,0.7-1.3,1-2c1-1.3,2.4-1.8,4-2c3-0.8,6-0.8,9,0c2.2,0.6,3.6,2.8,6,3
		c0.3,0.2,0.4,0.4,0.3,0.7c-0.1,0.2-0.2,0.3-0.3,0.3C375.4,36.1,368.7,36.1,362.1,36.1z"/>
	<path class="st59" d="M382.1,36.1c0-0.3,0-0.7,0-1c1.7,0.1,3.2-0.2,4-2c0.3-0.3,0.7-0.7,1-1c2,2.7-1,2.8-2,4
		C384.1,36.1,383.1,36.1,382.1,36.1z"/>
	<path class="st146" d="M210,38.2c0.4,0.6,0.8,1.2,1.2,1.8c0.3,0.8,0.6,1.5,0.9,2.3c1.8,5.1,1.4,5.6-4.1,5.6c-2.8,0-5.7-0.2-8.5,0.1
		c-3.9,0.4-5.2-1.2-4.4-4.9c1-1.7,2-3.5,2.9-5.2C202.1,36.4,206.1,35.6,210,38.2z"/>
	<path class="st146" d="M322.1,116.6c-0.2-3.4,1.3-5.4,4.4-5.5c3.9-0.2,3.8,3.1,3.8,5.7c0,2.7-0.2,5.8-3.9,5.6
		C323.1,122.1,321.7,119.7,322.1,116.6z"/>
	<path class="st152" d="M39.5,112.5c-0.4,1.8-1.9,2.1-3.3,2.3c-0.8,0.1-1.9,0.3-1.9-0.8c0-1.7,1.4-2.5,2.9-2.8
		C38.3,110.9,39.1,111.4,39.5,112.5z"/>
	<path class="st126" d="M199.1,31.1c3.7-1.6,7.3-1.7,11,0C206.4,31.1,202.7,31.1,199.1,31.1z"/>
	<path class="st89" d="M371.1,70.1c2,0,4,0,6,0C375.1,71.6,373.1,71.6,371.1,70.1z"/>
	<path class="st153" d="M320.1,60.1c1.8-2.2,3.8-4.2,7-4.3c0.7,0-0.2-0.1,0.5-0.1c7.4-0.4,7.4-0.4,8.4,6.5l-0.1-0.1
		c0.5,1.1,0,2-0.7,2.9c-5.2,4.9-8.6,5.5-14.4,2.5c-1-1-1.5-2.3-1.8-3.6C318.8,62.5,319.1,61.2,320.1,60.1z"/>
	<path class="st86" d="M320.1,60.1c-0.1,1.3-0.1,2.7-0.2,4c-0.4,1.3,0.6,2.9-0.9,4c-2-5-6.1-5.6-10.8-5
		C311.4,58.8,315.6,58.8,320.1,60.1z"/>
	<path class="st149" d="M336,62.2c0.8-7.4-4.4-6.4-8.9-6.4c2.9-1.6,6-0.4,9-0.7C336,57.4,336,59.8,336,62.2z"/>
	<path class="st154" d="M319.1,68.1c0.1-1.4-0.4-2.9,0.9-4c0.4,0.9,0.8,1.8,1.2,2.7c2.9,4.1,7.1,1.6,10.8,2c0.5,0.4,0.5,0.8,0.1,1.3
		c-0.7,0.3-1.3,0.7-2,1C326.1,71.2,322,71.6,319.1,68.1z"/>
	<path class="st155" d="M332.1,70c0-0.3,0-0.7,0-1c-0.1-2.3,2.6-3,3-5c0.3-0.6,0.6-1.3,0.9-1.9c0.7,0.3,1.4,0.6,2.1,1
		c-0.7,1.7-1.3,3.3-2,5c-1,0.7-2,1.3-3,2C332.7,70.1,332.4,70,332.1,70z"/>
	<path class="st156" d="M349.4,116.5c0.1,3.4-0.9,6.1-4.8,6c-3.6-0.1-4.4-3.1-4.4-6c0-3,1-5.7,4.7-5.7
		C348.7,110.8,349.3,113.5,349.4,116.5z"/>
	<path class="st153" d="M418.3,116.9c0.2,3.3-1.4,6-5.3,5.8c-3.2-0.1-3.8-3.1-3.9-5.8c-0.1-3,0.7-5.8,4.4-6
		C417.2,110.7,418.2,113.2,418.3,116.9z"/>
	<path class="st157" d="M278,116.5c-0.3,3.7-1.9,6.9-5.4,6.9c-3.7,0-4-3.8-4-6.8c0-3,0.9-5.8,4.7-5.7
		C277.2,110.9,277.7,113.8,278,116.5z"/>
	<path class="st76" d="M242,58.1c0,2.7,0,5.3,0,8c-3.6,0-7.2,0-10.8,0c0-2.7,0-5.3,0-8C234.8,55.9,238.4,55.9,242,58.1z"/>
	<path class="st58" d="M242,58.1c-3.6,0-7.2,0-10.8,0c0-1.7,0-3.3,0-5c3.6-2.2,7.2-2.2,10.9,0C242,54.8,242,56.4,242,58.1z"/>
	<path class="st158" d="M242,53.1c-3.6,0-7.2,0-10.9,0c0-1.3,0-2.7,0-4c2.4,0,4.9,0.2,7.3,0C241.6,48.8,242.4,50.3,242,53.1z"/>
	<path class="st159" d="M307.3,117.2c0.8,0,1.7,0,2.5,0c2.2,2.1,0.8,3.7-0.8,5.2c-1.1,1.2-2.4,1.5-3.9,0.8
		C302.7,120,304.7,118.5,307.3,117.2z"/>
	<path class="st134" d="M305.1,123.2c1.3-0.3,2.6-0.5,3.9-0.8C308.1,124.8,306.7,124.4,305.1,123.2z"/>
	<path class="st146" d="M227.1,114.8c0.9-2.1,1.6-4.6,4.6-4.2c2.3,0.4,4,1.6,3.3,4.4C232.4,115.7,229.8,116.1,227.1,114.8z"/>
	<path class="st160" d="M227.1,114.8c2.7,0.1,5.3,0.2,8,0.2C232.4,116.9,229.8,116.7,227.1,114.8z"/>
	<path class="st72" d="M376.1,32.1c-3,0-6,0-9,0C370.1,30.5,373.1,30.5,376.1,32.1z"/>
	<path class="st161" d="M124.1,115c0.3-2.8,1.7-4.7,4.7-4.4c2.5,0.2,3.6,1.9,3.3,4.5C129.4,115.8,126.8,115.9,124.1,115z"/>
	<path class="st162" d="M124.1,115c2.6,0,5.3,0,7.9,0C129.4,116.6,126.7,116.7,124.1,115z"/>
	<path class="st54" d="M136.1,22.1c0-2.7,0-5.3,0-8c3.6-2.2,7.3-2.2,10.9,0c0,2.7,0,5.3,0,8C143.4,24.2,139.7,24.2,136.1,22.1z"/>
	<path class="st163" d="M147,14.1c-3.6,0-7.3,0-10.9,0c0.6-1.5-1.6-5.4,2.5-3.9C141.4,11.2,147.6,5.7,147,14.1z"/>
	<path class="st56" d="M147,49.1c0,1.3,0,2.7,0,4c-3.7,0-7.3,0-11,0c0-1.3,0-2.7,0-4C139.7,49.1,143.3,49.1,147,49.1z"/>
	<path class="st99" d="M136.1,22.1c3.7,0,7.3,0,11,0c0,1,0,2,0,3c-3.7,2.2-7.3,2.2-11,0C136.1,24.1,136.1,23.1,136.1,22.1z"/>
	<path class="st164" d="M136.1,25.1c3.7,0,7.3,0,11,0c0,1,0,2,0,3c-3.7,0-7.3,0-11,0C136.1,27.1,136.1,26.1,136.1,25.1z"/>
	<path class="st165" d="M378.1,119.8c0.4,2.8-2.4,3.2-3.7,3.7c-1.3,0.5-2.5-1.7-2.5-3.4c0.1-2.5,2.4-2.3,4-2.7
		C377.8,117.1,378.2,118.3,378.1,119.8z"/>
	<path class="st74" d="M274.9,42.1c2.9,4.2,6.8,1.7,10.2,1.1c4.2-0.8,6.3-4.1,6.9-8.1c0.3-2.3,0-4.6-0.1-6.9c3.1,0,6.2,0.2,9.4,0.6
		c4,0.4,4.1,2.5,3.8,5.4c-2.1,0-4.3,0.3-6.4-0.1c-4.5-0.8-5.3,1.3-4.5,5.1c-0.8,0.4-1,1.2-1,2c-4.3,4.2-9.5,5.8-15.4,5
		C275.2,45.8,273.1,45.3,274.9,42.1z"/>
	<path class="st52" d="M119,44.1c0,1.7,0,3.3,0,5c-3.6,2.2-7.2,2.2-10.8,0c0-1.7,0-3.3,0-5C111.8,44.1,115.4,44.1,119,44.1z"/>
	<path class="st166" d="M147.1,122.3c-1.4-0.2-2,2.4-3.8,1.1c-1.3-0.9-1.3-2.2-1.2-3.5c0.3-1.8,2-2,3.3-2.4c0.8-0.2,1.6-0.2,2.4-0.3
		C149.9,119.2,148.6,120.8,147.1,122.3z"/>
	<path class="st167" d="M367.2,62c1.5,0.9,0.9,3.4,2.9,4c3.6,2.1,6.9,1.8,9.9-1.3c1.6-1.7,3.3-3.4,4.9-5.1c1,3-1.8,4.3-2.8,6.4
		c0,0.3-0.1,0.6-0.1,1c-0.3,0.3-0.6,0.6-1,0.9c-5.4,1-10.9,2.8-15-2.9c0-0.7,0-1.3,0-2C366.4,62.7,366.8,62.4,367.2,62z"/>
	<path class="st61" d="M147,63.1c0,2.3,0,4.7,0,7c-3.6,0-7.2,0-10.8,0c0-2.3,0-4.7,0-7C139.8,60.9,143.4,60.9,147,63.1z"/>
	<path class="st76" d="M147,63.1c-3.6,0-7.2,0-10.8,0c-0.8-4.2,1.1-5.5,5-5.1c1.9,0.2,3.9,0.1,5.8,0.1C147,59.7,147,61.4,147,63.1z"
		/>
	<path class="st111" d="M210.1,71c-2.4-0.2-4.9,1-7.1-0.9C205.4,70.4,208,69.2,210.1,71z"/>
	<path class="st168" d="M118.1,63.1c-1.9,2.1,1,3.3,1,5c-3.3-2.3-7.1-2.1-10.8-2c0-1-0.1-2-0.1-3c3-2.1,5.9-2,8.9,0
		C117.4,63.1,117.7,63.1,118.1,63.1z"/>
	<path class="st58" d="M119,53.1c0,1.3,0,2.7,0,4c-3.6,0-7.2,0-10.8,0c0-1.3,0-2.7,0-4C111.8,50.9,115.4,50.9,119,53.1z"/>
	<path class="st86" d="M117.1,63.1c-3,0-5.9,0-8.9,0c0-1,0-2,0-3C111.1,61,115.6,57.7,117.1,63.1z"/>
	<path class="st56" d="M119,53.1c-3.6,0-7.2,0-10.8,0c0-1.3,0-2.7,0-4c3.6,0,7.2,0,10.8,0C119,50.4,119,51.7,119,53.1z"/>
	<path class="st169" d="M380,64.8c-2.8,4.2-6.1,4.4-9.9,1.3C373.5,66.8,376.9,66.7,380,64.8z"/>
	<path class="st170" d="M335,64c0.7,2.7-1.5,3.6-3,5c-3.9,0.6-8.3,3.4-10.9-2.3C326.6,70.1,331,67.7,335,64z"/>
</g>
</svg>
