<?xml version="1.0" encoding="utf-8"?>
<!-- Generator: Adobe Illustrator 22.0.1, SVG Export Plug-In . SVG Version: 6.00 Build 0)  -->
<svg version="1.1" id="Ebene_1" xmlns="http://www.w3.org/2000/svg" xmlns:xlink="http://www.w3.org/1999/xlink" x="0px" y="0px"
	 viewBox="0 0 611.2 268.3" style="enable-background:new 0 0 611.2 268.3;" xml:space="preserve">
<style type="text/css">
	.st0{fill:#FEFEFE;}
	.st1{fill:#393637;}
	.st2{fill:#7B7D7F;}
	.st3{fill:#D1D2D4;}
	.st4{fill:#A8AAAD;}
	.st5{fill:#FDCB2A;}
</style>
<g>
	<path class="st0" d="M611.2,210.3c0,19.3,0,38.6,0,57.9c-203.7,0-407.5,0-611.2,0C0,178.9,0,89.4,0,0c203.7,0,407.5,0,611.2,0
		c0,69.5,0,139,0,208.5c-3.8-5.1-8.8-8-15.3-7.7c-3.8,0.2-7.3,1.6-10.6,3.5c-3.5,2-6.8,4.5-10,7c-0.5,0.4-1,1-1.9,1.2
		c0-3.6,0-7,0-10.5c-5.8,0-11.5,0-17.1,0c-0.5,0-0.9,0.1-1.4,0.3c-1.5,0.5-2.5,1.8-2.5,3.3c0,1.5,0.9,2.9,2.4,3.5
		c0.9,0.4,1.9,0.4,2.9,0.4c2.6,0,5.2,0,7.9,0c0,12.7,0,25.2,0,37.9c-2,0-3.9,0-5.8,0c-2.4,0-4.9-0.2-7.3,0.2
		c-1.9,0.3-3.1,1.6-3.1,3.3c-0.1,1.8,1,3.2,3,3.6c0.8,0.2,1.5,0.2,2.3,0.2c13.5,0,27,0,40.4,0c0.9,0,1.8-0.1,2.6-0.3
		c1.6-0.4,2.6-1.8,2.7-3.4c0-1.7-0.9-2.9-2.5-3.5c-0.9-0.3-1.8-0.3-2.8-0.3c-6.6,0-13.2,0-19.8,0c-0.5,0-1.1,0.1-1.6-0.1
		c-0.1-0.1-0.1-0.2-0.1-0.3c0-7.8,0-15.7,0-23.5c0-0.7,0.4-1,0.8-1.4c3.5-2.9,7.1-5.7,10.8-8.3c2.9-2,5.9-3.8,9.3-4.8
		c2.5-0.7,4.8-0.7,6.9,0.9c0.8,0.6,1.6,1.3,2.4,1.9C606.8,214.1,609.2,213.8,611.2,210.3z M432.6,208.7c0.1,0.3,0.1,0.6,0.2,0.9
		c0.2,1.4,0.6,2.7,2,3.2c1.4,0.6,2.3-0.4,3.3-1.2c0.1-0.1,0.2-0.1,0.2-0.2c1.2,1.1,2,2.5,2.2,4.1c0.4,2.7,1.8,3.8,4.2,3.7
		c2.2-0.1,3.5-1.7,3.6-4.2c0-2.2,0-4.4,0-6.6c2.8,0,5.5,0.5,8.3,0.6c6.5,0.2,13-0.2,19.5-1.4c1.9-0.3,3.6-1.1,5.6-0.9
		c-1.4,1.3-2.8,2.5-4,3.8c-8.9,9.6-9.4,24.2-1.2,34.3c10.8,13.4,31.4,15.8,44.9,5c9-7.2,12.7-16.5,10.1-27.8
		c-2.7-11.9-14.4-21-27.3-21.7c-0.2-1.1-0.5-2.2-0.7-3.3c0.9-0.1,1.6-0.7,2.3-1.2c2.5-1.8,5.3-3.3,7.3-5.7c0.7,0,1.1,0.5,1.6,0.9
		c2.7,1.8,5.4,3.4,8.3,4.7c0.8,0.4,1.4,0.3,2-0.4c3.6-4.1,6.7-8.5,9.1-13.4c7.4-14.7,9.8-30.4,8.7-46.7c-0.7-10.3-2.8-20.2-6.9-29.6
		c-1.9-4.4-4.1-8.8-7.3-12.5c1.6-1.9,3.4-3.8,4.9-5.8c8.3-11,11.1-23,6.1-36.2c-3.1-8.2-8.7-14.7-15.5-20.1
		c-2.1-1.6-2.9-3.6-3.1-6.1c-0.3-4.3,0.4-8.5,1.4-12.7c1-4,2.5-7.8,4-11.7c0.2-0.1,0.2-0.2,0.1-0.3c-0.1,0.1-0.1,0.1-0.2,0.2
		c-1.2,0.6-2.4,1.1-3.6,1.7c-8.7,4.2-17.3,8.5-26.6,11.1c-2.7,0.8-5.5,1.6-8.4,1c-5.1-1-10.2-1.9-15.4-2.4
		c-11.6-1.1-23.2-0.6-34.7,1.5c-2.7,0.5-5.4,1.5-8.2,1c-2.3-0.4-4.6-0.9-6.9-1.6c-9.3-3-18-7.2-26.6-11.6c-0.5-0.3-1-0.7-1.8-0.6
		c0.6,1.4,1.2,2.8,1.7,4.1c2.4,6.5,4.3,13.1,3.9,20.2c-0.1,2.5-0.9,4.6-3.1,6.3c-4.8,3.7-8.9,8-12.1,13.2c-5,8-7.1,16.6-5.3,26
		c1.6,8.3,5.8,15.2,11.6,21.3c0.4,0.5,1.1,0.8,1.2,1.6c-0.9,0.7-1.4,1.7-2,2.7c-7.8,12.1-11.3,25.5-12.2,39.7
		c-0.7,11.3,0.3,22.5,3.6,33.5c2.9,9.5,7.3,18.1,13.8,25.7c1,1.2,1.8,1.4,3.3,0.7c3.2-1.5,6.1-3.5,9.1-5.3c0.9,0.8,1.8,1.6,2.7,2.3
		c2.9,2.2,5.8,4.3,9.2,5.9c-0.2,0.7-0.3,1.5-0.5,2.2c-5.1,0.7-9.9,2.1-14,5.3c-2.6,2.1-4.3,4.7-4.5,8.1c-0.4,5.2,2.5,9.8,7.6,12.4
		c3,1.5,6.2,2,9.5,2.6c4.6,0.8,9.4,0.8,14,1.8c3.4,0.7,6.9,1.6,9.7,3.9c2.8,2.3,3.2,5.6,0.8,8.5c-1.7,2.1-3.9,3.5-6.4,4.4
		c-4.8,1.6-9.8,1.8-14.8,1.4c-3.8-0.3-7.5-1.2-10.9-3.2c-2.5-1.5-4.3-3.4-4.4-6.6c-0.1-2.1-1.8-3.6-3.9-3.6c-2.1,0-3.8,1.4-3.9,3.6
		c-0.1,3.9-0.1,7.8,0,11.8c0,1.6,0.9,2.8,2.5,3.4c1.6,0.6,3.1,0.2,4.3-1c0.4-0.4,0.7-1,1-1.5c1.3,0.6,2.6,1.3,3.9,1.9
		c8,3.2,16.2,3.4,24.5,2c5.2-0.9,9.7-3,13.4-6.8c5.8-6.1,5.3-14.7-1.2-20c-2.8-2.3-6-3.7-9.5-4.6c-5.6-1.4-11.4-1.7-17.1-2.5
		c-3-0.4-6-0.8-8.6-2.6c-3.2-2.2-3.4-5.1-0.4-7.6c1.4-1.1,2.9-1.9,4.6-2.5c3.5-1.2,7.2-1.4,10.8-1.3c1.4,3.6,3.1,3.9,5.7,1
		c0.1-0.1,0.2-0.2,0.3-0.3C431.9,208.5,432.3,208.6,432.6,208.7z M121,184.3c-9.3,0-18.6,0-27.8,0c-0.5,0-1,0.1-1.5,0.2
		c-1.8,0.4-2.8,1.7-2.8,3.4c0,1.8,0.9,3.1,2.8,3.6c0.9,0.2,1.7,0.2,2.6,0.2c4.3,0,8.5,0,12.9,0c-0.1,0.3-0.1,0.5-0.2,0.7
		c-7.2,17.9-14.4,35.8-21.6,53.8c-0.3,0.8-0.7,1-1.5,1c-1.4,0-2.9-0.2-4.3,0.3c-1.7,0.5-2.6,1.8-2.6,3.4c0,1.6,1,2.9,2.6,3.4
		c0.9,0.3,1.8,0.3,2.8,0.3c6.1,0,12.3,0,18.4,0c0.9,0,1.9,0,2.8-0.3c1.8-0.5,2.8-2,2.6-3.9c-0.2-1.9-1.7-3.2-4.1-3.2
		c-2.9-0.1-5.8,0-8.6,0c-0.3-0.6,0.1-1,0.2-1.4c1.6-4.2,3.3-8.3,4.9-12.5c0.4-1,0.8-1.3,1.9-1.3c10.1,0,20.1,0.1,30.2,0
		c1.1,0,1.5,0.4,1.9,1.3c1.6,4.1,3.3,8.2,5,12.3c0.2,0.5,0.5,0.9,0.3,1.6c-1.6,0-3.2,0-4.9,0c-1.7,0-3.4-0.2-5.1,0.3
		c-1.7,0.5-2.8,1.8-2.7,3.5c0,1.7,1.1,3,2.9,3.4c0.9,0.2,1.7,0.3,2.6,0.3c6.1,0,12.3,0,18.4,0c0.7,0,1.4,0,2.1-0.2
		c2.1-0.4,3.4-1.9,3.3-3.7c-0.1-1.9-1.5-3.3-3.7-3.5c-1-0.1-2-0.1-2.9,0c-1.1,0.1-1.6-0.4-2-1.4c-6.1-14.9-12.2-29.8-18.3-44.7
		C125.6,195.5,123.3,189.9,121,184.3z M212.1,209.5c-0.6-0.5-0.9-0.8-1.3-1.2c-9.6-8.5-20.4-10.5-32.2-5.7
		c-13.1,5.3-20.3,19.5-16.7,32.5c5.9,21.3,32.8,28.6,49,13.3c0.4-0.3,0.6-0.8,1.3-1c0,2.4,0,4.7,0,7.1c4.9,0,9.7,0,14.5,0
		c0.5,0,1-0.1,1.5-0.3c2.5-0.8,3.3-4,1.5-5.8c-0.9-1-2.1-1.2-3.4-1.2c-2,0-4.1,0-6.3,0c0-22.7,0-45.1,0-67.7c-4.8,0-9.4,0-14.1,0
		c-0.5,0-1,0.1-1.5,0.2c-1.8,0.4-2.9,1.8-2.8,3.6c0,1.8,1.2,3.2,2.9,3.5c1,0.2,2.1,0.2,3.1,0.2c1.5,0,3,0,4.5,0
		C212.1,194.5,212.1,201.8,212.1,209.5z M59.4,205.5c-0.3-0.1-0.4-0.2-0.5-0.2c-9.4-5.7-19.5-6.5-29.8-3.2
		c-11.6,3.7-19.3,14.1-19.5,25.8c-0.2,12.5,6.4,22.6,18.1,26.5c14.5,4.8,27.8,1.8,40-7.2c1-0.7,1.8-1.7,2.3-2.8
		c0.6-1.4,0.5-2.7-0.5-3.9c-1.1-1.2-2.4-1.5-3.9-1.1c-0.8,0.2-1.5,0.7-2.1,1.3c-8,6.9-17.3,9.3-27.6,8.2
		c-9.4-1.1-17.7-8.2-18.4-18.6c-0.6-9.2,5.3-19.2,14.9-21.5c5.8-1.4,11.7-1.3,17.4,0.5c2.8,0.9,5.2,2.4,7.3,4.5
		c1.4,1.4,2.2,2.9,2.4,4.9c0.3,2.3,1.9,3.7,4,3.6c2.1-0.1,3.6-1.5,3.7-3.8c0.1-4.2,0.1-8.5,0-12.7c0-1.6-0.9-2.8-2.5-3.4
		c-1.6-0.5-2.9-0.2-4.2,0.8C59.9,203.7,59.7,204.5,59.4,205.5z M251.8,209.4c2.3,0,4.4,0,6.6,0c0.8,0,1.6,0,2.4-0.3
		c1.5-0.5,2.5-1.9,2.5-3.4c0-1.5-1-2.9-2.4-3.4c-0.8-0.3-1.7-0.3-2.6-0.3c-4.2,0-8.4,0-12.5,0c-2.6,0-5.2-0.1-7.7,0
		c-2.4,0.1-4,1.6-4.1,3.6c0,2.1,1.6,3.6,4.1,3.8c1.1,0.1,2.3,0.1,3.4,0c1.4-0.2,2.1,0.4,2.8,1.7c6.7,14,13.4,28.1,20.1,42.1
		c0.5,1.1,1.1,1.5,2.3,1.4c2.4-0.1,4.8-0.1,7.1,0c1.5,0.1,2.1-0.5,2.6-1.7c6.6-14,13.3-28,19.9-42.1c0.5-1.1,1.2-1.6,2.4-1.5
		c1.7,0.1,3.4,0.3,5.1-0.3c1.6-0.5,2.5-1.7,2.5-3.3c0-1.7-0.9-3-2.5-3.5c-0.6-0.2-1.3-0.3-2-0.3c-6.8,0-13.6,0-20.4,0
		c-0.8,0-1.6,0.1-2.3,0.4c-1.4,0.6-2.2,1.7-2.2,3.2c0,1.6,0.7,2.8,2.2,3.4c0.9,0.4,1.8,0.4,2.7,0.4c2.1,0,4.2,0,6.6,0
		c-6,12.8-11.9,25.3-17.8,37.9c-0.2,0-0.4,0-0.5-0.1C263.9,234.7,257.9,222.1,251.8,209.4z M343.4,247.2c-0.7,0-1.3,0-1.8,0
		c-5.7,0-11.4,0-17,0c-0.9,0-1.9,0-2.8,0.3c-1.6,0.6-2.6,1.9-2.6,3.5c0,1.6,1.1,2.9,2.7,3.4c0.9,0.3,1.8,0.3,2.8,0.3
		c15.1,0,30.3,0,45.4,0c0.9,0,1.9,0,2.8-0.3c1.8-0.5,2.8-1.9,2.7-3.8c-0.1-2-1.7-3.3-4.3-3.3c-6,0-12.1,0-18.1,0c-0.6,0-1.1,0-1.8,0
		c0-7.6,0-15.1,0-22.6c0-7.5,0-15,0-22.6c-7.6,0-14.9,0-22.3,0c-2.8,0-4.5,1.4-4.5,3.7c-0.1,2.2,1.7,3.7,4.6,3.8c0.5,0,1,0,1.5,0
		c3.8,0,7.5,0,11.3,0c0.5,0,1-0.2,1.5,0.2C343.4,222.1,343.4,234.5,343.4,247.2z M351,177.1c-3.5,0-6.8,0-10.1,0c0,5,0,10,0,14.9
		c3.4,0,6.7,0,10.1,0C351,187.1,351,182.1,351,177.1z"/>
	<path class="st1" d="M611.2,210.3c-2,3.4-4.5,3.8-7.5,1.1c-0.8-0.7-1.6-1.3-2.4-1.9c-2.1-1.6-4.5-1.6-6.9-0.9
		c-3.4,1-6.4,2.8-9.3,4.8c-3.7,2.6-7.3,5.5-10.8,8.3c-0.4,0.4-0.8,0.7-0.8,1.4c0,7.8,0,15.7,0,23.5c0,0.1,0.1,0.2,0.1,0.3
		c0.5,0.3,1.1,0.1,1.6,0.1c6.6,0,13.2,0,19.8,0c0.9,0,1.9,0,2.8,0.3c1.7,0.6,2.6,1.8,2.5,3.5c0,1.6-1.1,2.9-2.7,3.4
		c-0.8,0.2-1.7,0.3-2.6,0.3c-13.5,0-27,0-40.4,0c-0.8,0-1.6-0.1-2.3-0.2c-1.9-0.4-3-1.8-3-3.6c0.1-1.7,1.3-3,3.1-3.3
		c2.4-0.4,4.8-0.1,7.3-0.2c1.9,0,3.8,0,5.8,0c0-12.7,0-25.2,0-37.9c-2.6,0-5.3,0-7.9,0c-1,0-2,0-2.9-0.4c-1.5-0.6-2.4-1.9-2.4-3.5
		c0-1.6,1-2.9,2.5-3.3c0.4-0.1,0.9-0.3,1.4-0.3c5.7,0,11.3,0,17.1,0c0,3.5,0,6.9,0,10.5c0.9-0.2,1.3-0.8,1.9-1.2c3.2-2.5,6.4-5,10-7
		c3.3-1.9,6.8-3.3,10.6-3.5c6.5-0.3,11.4,2.6,15.3,7.7C611.2,209.1,611.2,209.7,611.2,210.3z"/>
	<path class="st2" d="M526.4,0.7c-1.4,3.9-3,7.7-4,11.7c-1,4.2-1.7,8.4-1.4,12.7c0.2,2.5,1,4.5,3.1,6.1c6.8,5.4,12.4,11.8,15.5,20.1
		c5,13.2,2.2,25.2-6.1,36.2c-1.5,2-3.2,3.8-4.9,5.8c-1.8,1.5-3.6,3-5.5,4.4c-10,7.7-21.3,12.5-33.4,15.4c-3.3,0.8-6.6,1.4-9.9,2.2
		c-3.6,0.4-7.1,0.8-10.7,1c-5.9,0.4-11.7,0.4-17.6,0c-3.6-0.3-7.2-0.7-10.7-1.1c-0.1-0.1-0.3-0.2-0.4-0.2c-7.8-1.1-15.3-3.2-22.6-6
		c-7.7-3-14.9-6.9-21.3-12.1c-1.5-1.2-2.8-2.7-4.5-3.6c-0.1-0.7-0.7-1.1-1.2-1.6c-5.8-6.1-10-13-11.6-21.3c-1.8-9.4,0.3-18,5.3-26
		c3.2-5.1,7.3-9.5,12.1-13.2c2.2-1.6,3-3.8,3.1-6.3c0.4-7.1-1.5-13.7-3.9-20.2c-0.5-1.3-1.1-2.6-1.7-4.1c0.8-0.1,1.3,0.4,1.8,0.6
		c8.7,4.3,17.4,8.6,26.6,11.6c2.3,0.7,4.6,1.3,6.9,1.6c2.8,0.5,5.5-0.5,8.2-1c11.5-2.1,23-2.6,34.7-1.5c5.2,0.5,10.3,1.4,15.4,2.4
		c2.9,0.6,5.6-0.2,8.4-1c9.3-2.7,18-6.9,26.6-11.1c1.2-0.6,2.4-1.1,3.6-1.7C526.4,0.6,526.4,0.6,526.4,0.7z M421.4,96.5
		c17,0.1,31.1-14,31.2-31c0.1-17.4-13.7-31.5-31-31.5c-17.4-0.1-31.5,13.8-31.5,31.1C390,82.4,404,96.4,421.4,96.5z M499.2,96.5
		c17.6-0.3,31.6-14.3,31.4-31.6c-0.2-17.4-14.5-31.2-32-30.9c-17.2,0.3-30.8,14.5-30.5,32C468.3,82.7,482.6,96.7,499.2,96.5z
		 M459.4,109.7c3.7-6.8,7.2-13.1,10.8-19.7c-7.4,0-14.5,0-21.7,0C452.1,96.6,455.7,102.9,459.4,109.7z"/>
	<path class="st3" d="M440.8,115.2c3.6,0.4,7.1,0.8,10.7,1.1c5.9,0.4,11.7,0.4,17.6,0c3.6-0.3,7.2-0.7,10.7-1
		c0.1,3.4,0.7,6.8,1.2,10.2c1.5,10.4,4,20.6,7.8,30.4c4.5,11.6,10.7,22.1,19.8,30.6c1.4,1.3,3.1,2.2,4.3,3.8
		c-2.1,2.4-4.8,3.9-7.3,5.7c-0.7,0.5-1.4,1.1-2.3,1.2c-0.8-1.3-1.4-2.7-2.6-3.8c-1.9-1.7-3.7-1.2-4.6,1.1c-0.5,1.4-0.3,2.8-0.4,4.3
		c-0.6-0.8-1.1-1.5-1.7-2.1c-0.8-0.9-1.8-1.5-3-1.1c-1.2,0.4-1.6,1.4-2,2.5c-0.3,1-0.3,2.1-0.3,3.3c-0.7-0.9-1.1-1.5-1.7-2.1
		c-0.8-0.9-1.7-1.7-3.1-1.4c-1.4,0.4-1.8,1.6-2.1,2.8c-0.6,2,0,3.9,0.3,5.8c-0.2,0.1-0.4,0.2-0.6,0.3c-1.9-0.2-3.7,0.6-5.6,0.9
		c-6.4,1.2-12.9,1.7-19.5,1.4c-2.8-0.1-5.5-0.6-8.3-0.6c-2.5-0.9-5.1-1-7.7-1.7c0.1-2,0.5-4-0.1-6c-0.8-2.6-2.8-3-4.7-1.2
		c-0.8,0.8-1.3,1.8-2.1,2.9c-0.1-1.5,0.1-2.7-0.3-3.9c-0.9-2.7-2.9-3.2-4.9-1.2c-0.6,0.6-1.1,1.3-1.7,2.1c0-1.5,0.1-2.7-0.3-3.9
		c-0.8-2.6-2.7-3.2-4.8-1.4c-1.3,1.1-1.8,2.7-2.6,4.1c-3.3-1.5-6.2-3.7-9.2-5.9c-0.9-0.7-1.8-1.5-2.7-2.3c3.8-3.1,7.5-6.3,10.5-10.1
		c6.6-8.1,11.3-17.3,14.8-27.1c2.9-8,4.9-16.3,6.3-24.7C439.8,123.9,440.4,119.6,440.8,115.2z M455.1,162c-0.1-0.3,0.1-0.7-0.5-0.8
		C454.5,161.6,454.8,161.8,455.1,162c1.5,3.4,3.4,6.6,5.4,10.1c1.9-3.7,4-6.8,5.5-10.3c0.1-0.1,0.2-0.2,0.2-0.3c0,0-0.1-0.1-0.1-0.1
		c0,0.1-0.1,0.3-0.1,0.4c-1.1,0.3-1.4,1.4-2.1,2.1c-1.2,1.3-2.1,2.9-3.5,4.1c-0.6-0.8-1.1-1.6-1.7-2.2
		C457.4,164.6,456.8,162.7,455.1,162z M484.5,157c-1.1,0.3-1.4,1.4-2.1,2.1c-1.2,1.3-2.1,2.9-3.5,4.1c-0.6-0.8-1.1-1.6-1.7-2.2
		c-1.3-1.2-1.8-3-3.5-3.8c-0.1-0.3,0.1-0.7-0.4-0.8c-0.2,0.5,0.1,0.6,0.4,0.8c1.5,3.4,3.4,6.6,5.4,10
		C480.9,163.7,483,160.5,484.5,157c0.1-0.1,0.2-0.2,0.2-0.3c0,0-0.1-0.1-0.1-0.1C484.6,156.7,484.5,156.9,484.5,157z M436.5,157.3
		c-0.1-0.3,0.1-0.7-0.4-0.8C435.8,157,436.2,157.2,436.5,157.3c1.5,3.4,3.4,6.6,5.4,10.1c1.9-3.7,4-6.8,5.5-10.3
		c0.1-0.1,0.2-0.2,0.2-0.3c0,0-0.1-0.1-0.1-0.1c0,0.1-0.1,0.3-0.1,0.4c-1.1,0.3-1.4,1.4-2.1,2.1c-1.2,1.3-2.1,2.9-3.5,4.1
		c-0.6-0.8-1.1-1.6-1.7-2.2C438.8,159.9,438.2,158.1,436.5,157.3z M465.9,182.7c-0.9,0.4-1.3,1.2-1.9,1.9c-1.3,1.5-2.5,3-3.8,4.6
		c-1.2-1.5-2.2-2.9-3.3-4.1c-0.7-0.7-1-1.8-2.1-2.1c0-0.1-0.1-0.3-0.1-0.4c0,0-0.1,0.1-0.1,0.1c0.1,0.1,0.1,0.2,0.2,0.4
		c1.5,3.5,3.5,6.7,5.5,10.2c0.5-1,1-1.7,1.3-2.4C463,188.2,464.7,185.6,465.9,182.7c0.1-0.1,0.2-0.2,0.2-0.3c0,0-0.1-0.1-0.1-0.1
		C466,182.5,466,182.6,465.9,182.7z M447.3,178.1c-0.9,0.4-1.3,1.2-1.9,1.9c-1.3,1.5-2.5,3-3.8,4.6c-1.2-1.5-2.2-2.9-3.3-4.1
		c-0.7-0.7-1-1.8-2.1-2.1c0-0.1-0.1-0.3-0.1-0.4c0,0-0.1,0.1-0.1,0.1c0.1,0.1,0.1,0.2,0.2,0.4c1.5,3.5,3.5,6.7,5.5,10.2
		c0.5-1,1-1.7,1.3-2.4C444.5,183.5,446.1,181,447.3,178.1c0.1-0.1,0.2-0.2,0.2-0.3c0,0-0.1-0.1-0.1-0.1
		C447.4,177.8,447.4,178,447.3,178.1z M475.2,136.9c-0.9,0.4-1.3,1.3-1.9,1.9c-1.3,1.5-2.3,3.2-3.9,4.6c-1.2-1.4-2.1-2.8-3.3-4.1
		c-0.7-0.7-1-1.8-2.1-2.1c0-0.1-0.1-0.3-0.1-0.4c0,0-0.1,0.1-0.1,0.1c0.1,0.1,0.1,0.2,0.2,0.4c1.5,3.5,3.6,6.7,5.5,10.3
		C471.5,143.7,473.7,140.5,475.2,136.9c0.1-0.1,0.2-0.2,0.2-0.3c0,0-0.1-0.1-0.1-0.1C475.3,136.6,475.3,136.8,475.2,136.9z
		 M445.5,137.2c0-0.1-0.1-0.3-0.1-0.4c0,0-0.1,0.1-0.1,0.1C445.3,137,445.4,137.1,445.5,137.2c1.5,3.5,3.6,6.7,5.5,10.3
		c1.9-3.8,4.1-7,5.6-10.6c0.1-0.1,0.2-0.2,0.2-0.3c0,0-0.1-0.1-0.1-0.1c0,0.1-0.1,0.3-0.1,0.4c-0.9,0.4-1.3,1.3-1.9,1.9
		c-1.3,1.5-2.3,3.2-3.9,4.6c-1.2-1.5-2.1-2.8-3.3-4.1C446.9,138.6,446.6,137.5,445.5,137.2z M484.5,178.1c-0.9,0.4-1.3,1.2-1.9,1.9
		c-1.3,1.5-2.5,3-3.8,4.6c-1.2-1.5-2.2-2.9-3.3-4.1c-0.7-0.7-1-1.8-2.1-2.1c0-0.1-0.1-0.3-0.1-0.4c0,0-0.1,0.1-0.1,0.1
		c0.1,0.1,0.1,0.2,0.2,0.4c1.5,3.5,3.5,6.7,5.5,10.2c0.5-1,1-1.7,1.3-2.4C481.6,183.5,483.3,181,484.5,178.1
		c0.1-0.1,0.2-0.2,0.2-0.3c0,0-0.1-0.1-0.1-0.1C484.6,177.8,484.6,178,484.5,178.1z"/>
	<path class="st4" d="M440.8,115.2c-0.4,4.4-1,8.7-1.8,13.1c-1.4,8.4-3.5,16.7-6.3,24.7c-3.5,9.8-8.2,18.9-14.8,27.1
		c-3.1,3.8-6.8,7-10.5,10.1c-3,1.9-5.9,3.8-9.1,5.3c-1.4,0.7-2.2,0.5-3.3-0.7c-6.5-7.6-10.9-16.2-13.8-25.7
		c-3.3-10.9-4.3-22.1-3.6-33.5c0.9-14.2,4.4-27.6,12.2-39.7c0.6-0.9,1.1-2,2-2.7c1.8,0.9,3,2.4,4.5,3.6c6.4,5.2,13.7,9.1,21.3,12.1
		c7.3,2.9,14.8,4.9,22.6,6C440.6,115,440.7,115.1,440.8,115.2z"/>
	<path class="st4" d="M513,190.2c-1.1-1.6-2.9-2.5-4.3-3.8c-9.2-8.5-15.4-19-19.8-30.6c-3.8-9.8-6.3-20-7.8-30.4
		c-0.5-3.4-1.1-6.8-1.2-10.2c3.3-0.7,6.6-1.4,9.9-2.2c12.1-3,23.4-7.8,33.4-15.4c1.9-1.4,3.7-3,5.5-4.4c3.1,3.8,5.3,8.1,7.3,12.5
		c4.1,9.4,6.3,19.4,6.9,29.6c1.1,16.3-1.4,32-8.7,46.7c-2.4,4.9-5.5,9.3-9.1,13.4c-0.6,0.7-1.2,0.8-2,0.4c-2.9-1.3-5.7-2.9-8.3-4.7
		C514.1,190.7,513.7,190.2,513,190.2z"/>
	<path class="st1" d="M121,184.3c2.3,5.6,4.6,11.1,6.9,16.7c6.1,14.9,12.2,29.8,18.3,44.7c0.4,1,0.9,1.5,2,1.4c1-0.1,2-0.1,2.9,0
		c2.1,0.2,3.6,1.6,3.7,3.5c0.1,1.8-1.2,3.3-3.3,3.7c-0.7,0.1-1.4,0.2-2.1,0.2c-6.1,0-12.3,0-18.4,0c-0.9,0-1.8,0-2.6-0.3
		c-1.7-0.4-2.8-1.7-2.9-3.4c0-1.7,1-3,2.7-3.5c1.7-0.5,3.4-0.2,5.1-0.3c1.6,0,3.3,0,4.9,0c0.2-0.7-0.2-1.1-0.3-1.6
		c-1.7-4.1-3.3-8.2-5-12.3c-0.4-0.9-0.8-1.3-1.9-1.3c-10.1,0.1-20.1,0.1-30.2,0c-1.1,0-1.5,0.3-1.9,1.3c-1.6,4.2-3.3,8.3-4.9,12.5
		c-0.2,0.4-0.5,0.8-0.2,1.4c2.8,0,5.7,0,8.6,0c2.4,0.1,3.9,1.3,4.1,3.2c0.2,1.8-0.8,3.4-2.6,3.9c-0.9,0.3-1.8,0.3-2.8,0.3
		c-6.1,0-12.3,0-18.4,0c-0.9,0-1.9,0-2.8-0.3c-1.6-0.5-2.6-1.8-2.6-3.4c0-1.7,0.9-2.9,2.6-3.4c1.4-0.5,2.9-0.3,4.3-0.3
		c0.8,0,1.2-0.2,1.5-1c7.2-17.9,14.4-35.8,21.6-53.8c0.1-0.2,0.1-0.4,0.2-0.7c-4.4,0-8.6,0-12.9,0c-0.9,0-1.8,0-2.6-0.2
		c-1.8-0.5-2.8-1.8-2.8-3.6c0-1.7,1.1-3,2.8-3.4c0.5-0.1,1-0.2,1.5-0.2C102.5,184.3,111.7,184.3,121,184.3z M115.6,191.5
		c-4.5,11.1-8.8,22-13.2,32.9c9,0,17.8,0,26.7,0C124.7,213.5,120.2,202.7,115.6,191.5z"/>
	<path class="st1" d="M212.1,209.5c0-7.7,0-15,0-22.6c-1.6,0-3,0-4.5,0c-1,0-2.1,0-3.1-0.2c-1.8-0.3-2.9-1.7-2.9-3.5
		c0-1.7,1.1-3.1,2.8-3.6c0.5-0.1,1-0.2,1.5-0.2c4.6,0,9.3,0,14.1,0c0,22.6,0,45.1,0,67.7c2.2,0,4.3,0,6.3,0c1.3,0,2.5,0.3,3.4,1.2
		c1.8,1.9,1,5-1.5,5.8c-0.5,0.2-1,0.3-1.5,0.3c-4.8,0-9.6,0-14.5,0c0-2.4,0-4.8,0-7.1c-0.7,0.1-1,0.6-1.3,1
		c-16.2,15.3-43.1,8.1-49-13.3c-3.6-13,3.6-27.2,16.7-32.5c11.8-4.8,22.6-2.8,32.2,5.7C211.2,208.7,211.5,209,212.1,209.5z
		 M190.5,207.7c-2.1,0-4.1,0.2-6.1,0.8c-14.2,3.8-20.3,20.8-11.4,32c5.5,6.9,12.7,9.5,21.4,8.2c11.7-1.7,19.8-13.3,17.3-24.8
		C209.6,214.4,200.7,207.7,190.5,207.7z"/>
	<path class="st1" d="M59.4,205.5c0.3-0.9,0.5-1.8,1.2-2.4c1.2-1.1,2.6-1.4,4.2-0.8c1.6,0.6,2.4,1.8,2.5,3.4c0.1,4.2,0.1,8.5,0,12.7
		c-0.1,2.3-1.6,3.7-3.7,3.8c-2.2,0.1-3.8-1.3-4-3.6c-0.2-1.9-1.1-3.5-2.4-4.9c-2.1-2.1-4.5-3.6-7.3-4.5c-5.8-1.8-11.6-1.9-17.4-0.5
		c-9.6,2.3-15.5,12.2-14.9,21.5c0.7,10.5,9,17.6,18.4,18.6c10.3,1.2,19.7-1.2,27.6-8.2c0.6-0.5,1.3-1,2.1-1.3
		c1.5-0.4,2.9-0.1,3.9,1.1c1,1.2,1.1,2.5,0.5,3.9c-0.5,1.2-1.4,2.1-2.3,2.8c-12.1,9-25.5,12-40,7.2C16,250.4,9.4,240.2,9.6,227.8
		c0.2-11.7,7.8-22.1,19.5-25.8c10.3-3.3,20.4-2.5,29.8,3.2C59,205.3,59.1,205.3,59.4,205.5z"/>
	<path class="st1" d="M251.8,209.4c6.1,12.7,12.1,25.3,18.1,37.8c0.2,0,0.4,0,0.5,0.1c5.9-12.6,11.8-25.1,17.8-37.9
		c-2.4,0-4.5,0-6.6,0c-0.9,0-1.9,0-2.7-0.4c-1.5-0.6-2.3-1.8-2.2-3.4c0-1.5,0.8-2.6,2.2-3.2c0.7-0.3,1.5-0.4,2.3-0.4
		c6.8,0,13.6,0,20.4,0c0.7,0,1.3,0.1,2,0.3c1.6,0.5,2.5,1.8,2.5,3.5c0,1.6-1,2.8-2.5,3.3c-1.7,0.5-3.4,0.3-5.1,0.3
		c-1.3,0-1.9,0.4-2.4,1.5c-6.6,14-13.3,28-19.9,42.1c-0.6,1.2-1.2,1.8-2.6,1.7c-2.4-0.2-4.8-0.1-7.1,0c-1.2,0.1-1.8-0.3-2.3-1.4
		c-6.7-14-13.4-28.1-20.1-42.1c-0.6-1.3-1.3-1.9-2.8-1.7c-1.1,0.1-2.3,0.1-3.4,0c-2.5-0.1-4.1-1.7-4.1-3.8c0-2,1.6-3.5,4.1-3.6
		c2.6-0.1,5.2,0,7.7,0c4.2,0,8.4,0,12.5,0c0.9,0,1.8,0.1,2.6,0.3c1.5,0.5,2.5,1.9,2.4,3.4c0,1.5-1,2.9-2.5,3.4
		c-0.8,0.3-1.6,0.3-2.4,0.3C256.3,209.4,254.2,209.4,251.8,209.4z"/>
	<path class="st1" d="M481.7,206.7c0.2-0.1,0.4-0.2,0.6-0.3c1,2.4,1.9,4.9,4.7,5.9c-1.2,1.2-2.5,2.3-3.7,3.5
		c-6.1,6.8-6.4,17-0.8,24.2c7.9,10.2,23.5,12.2,33.7,4.2c11.2-8.7,10.9-23.7-0.5-32c-5.7-4.1-12.1-5-18.8-4.1
		c0.5-1.5,0.4-3.1,0.5-4.8c0.7,1,1.2,1.8,1.9,2.4c1.9,1.7,3.8,1.3,4.6-1.2c0.5-1.4,0.3-2.7,0.3-4.1c12.8,0.7,24.5,9.8,27.3,21.7
		c2.6,11.3-1.1,20.6-10.1,27.8c-13.5,10.7-34,8.4-44.9-5c-8.2-10.1-7.7-24.7,1.2-34.3C478.9,209.1,480.3,208,481.7,206.7z"/>
	<path class="st1" d="M425.6,207.7c-3.7-0.1-7.3,0.1-10.8,1.3c-1.7,0.6-3.2,1.4-4.6,2.5c-3,2.5-2.8,5.4,0.4,7.6
		c2.6,1.8,5.6,2.2,8.6,2.6c5.7,0.8,11.5,1.1,17.1,2.5c3.5,0.9,6.7,2.3,9.5,4.6c6.5,5.3,7,13.9,1.2,20c-3.7,3.8-8.2,5.9-13.4,6.8
		c-8.3,1.4-16.5,1.2-24.5-2c-1.3-0.5-2.6-1.2-3.9-1.9c-0.3,0.5-0.6,1.1-1,1.5c-1.2,1.2-2.6,1.6-4.3,1c-1.6-0.6-2.5-1.8-2.5-3.4
		c-0.1-3.9-0.1-7.8,0-11.8c0.1-2.2,1.8-3.7,3.9-3.6c2.1,0,3.9,1.4,3.9,3.6c0.1,3.2,1.8,5.1,4.4,6.6c3.4,2,7,2.9,10.9,3.2
		c5,0.4,10,0.2,14.8-1.4c2.5-0.9,4.7-2.3,6.4-4.4c2.3-2.8,2-6.1-0.8-8.5c-2.8-2.3-6.2-3.1-9.7-3.9c-4.6-1-9.3-1.1-14-1.8
		c-3.3-0.5-6.5-1.1-9.5-2.6c-5.1-2.5-8-7.2-7.6-12.4c0.2-3.4,1.9-6.1,4.5-8.1c4.1-3.2,8.9-4.7,14-5.3c-0.3,1.8-0.3,3.6,0.4,5.3
		c0.8,1.9,2.3,2.3,4,1.1c1-0.7,1.6-1.8,2.5-3C425.6,205.4,425.6,206.6,425.6,207.7z"/>
	<path class="st1" d="M343.4,247.2c0-12.7,0-25.1,0-37.5c-0.5-0.4-1-0.2-1.5-0.2c-3.8,0-7.5,0-11.3,0c-0.5,0-1,0-1.5,0
		c-2.8-0.1-4.6-1.5-4.6-3.8c0.1-2.2,1.7-3.6,4.5-3.7c7.4,0,14.8,0,22.3,0c0,7.6,0,15.1,0,22.6c0,7.5,0,14.9,0,22.6
		c0.7,0,1.2,0,1.8,0c6,0,12.1,0,18.1,0c2.6,0,4.2,1.3,4.3,3.3c0.1,1.9-0.9,3.3-2.7,3.8c-0.9,0.2-1.8,0.3-2.8,0.3
		c-15.1,0-30.3,0-45.4,0c-0.9,0-1.9,0-2.8-0.3c-1.6-0.4-2.7-1.8-2.7-3.4c0-1.6,0.9-2.9,2.6-3.5c0.9-0.3,1.8-0.3,2.8-0.3
		c5.7,0,11.4,0,17,0C342.1,247.2,342.7,247.2,343.4,247.2z"/>
	<path class="st5" d="M425.6,207.7c0-1.2,0-2.3,0-3.9c-0.8,1.3-1.5,2.3-2.5,3c-1.7,1.2-3.2,0.8-4-1.1c-0.7-1.7-0.7-3.5-0.4-5.3
		c0.2-0.7,0.3-1.5,0.5-2.2c0.8-1.4,1.3-3,2.6-4.1c2-1.8,4-1.2,4.8,1.4c0.4,1.2,0.3,2.4,0.3,3.9c0.7-0.8,1.1-1.5,1.7-2.1
		c2-2,4-1.5,4.9,1.2c0.4,1.2,0.2,2.4,0.3,3.9c0.8-1.1,1.3-2.1,2.1-2.9c1.9-1.8,3.9-1.3,4.7,1.2c0.6,2,0.2,4,0.1,6
		c-0.8,1.6-1.4,3.3-2.4,4.7c-0.1,0.1-0.2,0.1-0.2,0.2c-0.9,0.8-1.9,1.7-3.3,1.2c-1.4-0.6-1.8-1.9-2-3.2c0-0.3-0.1-0.6-0.2-0.9
		c0-0.7,0.1-1.3,0.2-2.3c-0.5,0.9-0.8,1.5-1.1,2c-0.1,0.1-0.2,0.2-0.3,0.3C428.7,211.6,427,211.3,425.6,207.7z"/>
	<path class="st5" d="M487,212.2c-2.8-1-3.7-3.5-4.7-5.9c-0.3-1.9-0.8-3.8-0.3-5.8c0.3-1.2,0.7-2.4,2.1-2.8c1.3-0.3,2.3,0.5,3.1,1.4
		c0.5,0.6,1,1.3,1.7,2.1c0-1.2,0-2.3,0.3-3.3c0.3-1.1,0.8-2.2,2-2.5c1.2-0.4,2.2,0.3,3,1.1c0.6,0.6,1.1,1.3,1.7,2.1
		c0.1-1.5-0.1-3,0.4-4.3c0.9-2.4,2.7-2.8,4.6-1.1c1.2,1,1.7,2.5,2.6,3.8c0.2,1.1,0.5,2.2,0.7,3.3c0,1.4,0.1,2.8-0.3,4.1
		c-0.9,2.5-2.7,2.9-4.6,1.2c-0.7-0.6-1.2-1.4-1.9-2.4c-0.1,1.8,0,3.3-0.5,4.8c-1.4,1.9-2,2.1-4.2,1.1c-0.9-0.9-1.7-1.9-2.4-3
		c0,1.4-0.2,2.8-0.4,4.1c0,0,0,0,0,0c-0.1,0.1-0.2,0.2-0.3,0.3C489,211.6,488.2,212.3,487,212.2z"/>
	<path class="st1" d="M351,177.1c0,5,0,9.9,0,14.9c-3.4,0-6.7,0-10.1,0c0-5,0-9.9,0-14.9C344.2,177.1,347.5,177.1,351,177.1z"/>
	<path class="st1" d="M438.3,211.5c1.1-1.4,1.6-3.1,2.4-4.7c2.5,0.7,5.2,0.8,7.7,1.7c0,2.2,0,4.4,0,6.6c-0.1,2.5-1.4,4.1-3.6,4.2
		c-2.4,0.2-3.8-1-4.2-3.7C440.2,214,439.5,212.6,438.3,211.5z"/>
	<path class="st1" d="M431.6,208.4c0.3-0.6,0.6-1.1,1.1-2c-0.1,1-0.1,1.7-0.2,2.3C432.3,208.6,431.9,208.5,431.6,208.4z"/>
	<path class="st2" d="M526.3,0.6c0.1-0.1,0.1-0.1,0.2-0.2c0.1,0.1,0.1,0.2-0.1,0.3C526.4,0.6,526.4,0.6,526.3,0.6z"/>
	<path class="st0" d="M421.4,96.5C404,96.4,390,82.4,390.1,65c0.1-17.3,14.2-31.1,31.5-31.1c17.3,0.1,31.1,14.1,31,31.5
		C452.5,82.5,438.4,96.6,421.4,96.5z M407.3,54.4c-5.5,7.2-4.7,17.2,1.7,23.4c6.4,6.3,16.5,6.8,23.5,1.3c7-5.6,8.8-15.5,4.2-23.1
		c-4.9-8.2-14.6-9.9-19.7-7.9c4.2,1.8,6.2,5.2,5.2,9c-0.9,3.6-4.2,6-8,5.7C410.2,62.6,407.8,59.7,407.3,54.4z"/>
	<path class="st0" d="M499.2,96.5c-16.6,0.3-30.9-13.8-31.2-30.5c-0.2-17.6,13.3-31.8,30.5-32c17.6-0.3,31.8,13.5,32,30.9
		C530.8,82.2,516.9,96.2,499.2,96.5z M485.3,54.5c-4.3,4.7-5.7,14.4,0,21.7c5.7,7.2,15.6,8.9,23.4,4.1c7.7-4.8,10.6-14.6,6.7-22.8
		c-3.7-7.8-13.1-12.1-20.7-9.5c4.5,2,6.4,5.3,5.3,9.3c-0.9,3.5-4.4,5.8-8.2,5.4C487.9,62.4,485.5,59.4,485.3,54.5z"/>
	<path class="st5" d="M459.4,109.7c-3.7-6.7-7.2-13.1-10.9-19.7c7.3,0,14.3,0,21.7,0C466.6,96.5,463.1,102.9,459.4,109.7z"/>
	<path class="st4" d="M484.5,178.1c-1.2,2.8-2.9,5.4-4.3,8.2c-0.4,0.7-0.8,1.4-1.3,2.4c-2-3.5-4-6.7-5.5-10.2l0,0
		c1.1,0.3,1.4,1.4,2.1,2.1c1.1,1.3,2.1,2.6,3.3,4.1c1.3-1.6,2.6-3.1,3.8-4.6C483.2,179.3,483.6,178.5,484.5,178.1L484.5,178.1z"/>
	<path class="st4" d="M445.5,137.2c1.1,0.3,1.4,1.4,2.1,2.1c1.1,1.3,2.1,2.6,3.3,4.1c1.6-1.4,2.6-3.1,3.9-4.6c0.6-0.7,1-1.6,1.9-1.9
		l0,0c-1.5,3.6-3.7,6.9-5.6,10.6C449.1,143.9,447,140.7,445.5,137.2L445.5,137.2z"/>
	<path class="st4" d="M475.2,136.9c-1.5,3.6-3.7,6.8-5.6,10.6c-1.9-3.6-4-6.8-5.5-10.3l0,0c1.1,0.3,1.4,1.4,2.1,2.1
		c1.1,1.3,2.1,2.6,3.3,4.1c1.6-1.4,2.6-3.1,3.9-4.6C473.9,138.1,474.3,137.3,475.2,136.9L475.2,136.9z"/>
	<path class="st4" d="M436.2,178.4c1.1,0.3,1.4,1.4,2.1,2.1c1.1,1.3,2.1,2.6,3.3,4.1c1.3-1.6,2.6-3.1,3.8-4.6c0.6-0.7,1-1.6,1.9-1.9
		l0,0c-1.2,2.8-2.9,5.4-4.3,8.2c-0.4,0.7-0.8,1.4-1.3,2.4C439.7,185.2,437.7,181.9,436.2,178.4L436.2,178.4z"/>
	<path class="st4" d="M454.8,183c1.1,0.3,1.4,1.4,2.1,2.1c1.1,1.3,2.1,2.6,3.3,4.1c1.3-1.6,2.6-3.1,3.8-4.6c0.6-0.7,1-1.6,1.9-1.9
		l0,0c-1.2,2.8-2.9,5.4-4.3,8.2c-0.4,0.7-0.8,1.4-1.3,2.4C458.3,189.8,456.3,186.6,454.8,183L454.8,183z"/>
	<path class="st4" d="M436.5,157.3c1.7,0.8,2.3,2.6,3.5,3.8c0.6,0.6,1.1,1.4,1.7,2.2c1.4-1.3,2.3-2.8,3.5-4.1c0.7-0.7,1-1.8,2.1-2.1
		l0,0c-1.5,3.5-3.6,6.7-5.5,10.3C439.9,163.9,438,160.8,436.5,157.3L436.5,157.3z"/>
	<path class="st4" d="M484.5,157c-1.5,3.5-3.6,6.7-5.5,10.3c-2-3.5-3.9-6.6-5.4-10l0,0c1.7,0.8,2.3,2.6,3.5,3.8
		c0.6,0.6,1.1,1.4,1.7,2.2c1.4-1.3,2.3-2.8,3.5-4.1C483.1,158.4,483.4,157.3,484.5,157L484.5,157z"/>
	<path class="st4" d="M455.1,162c1.7,0.8,2.3,2.6,3.5,3.8c0.6,0.6,1.1,1.4,1.7,2.2c1.4-1.3,2.3-2.8,3.5-4.1c0.7-0.7,1-1.8,2.1-2.1
		l0,0c-1.5,3.5-3.6,6.7-5.5,10.3C458.5,168.6,456.6,165.4,455.1,162L455.1,162z"/>
	<path class="st4" d="M473.7,157.4c-0.3-0.2-0.6-0.3-0.4-0.8C473.8,156.6,473.6,157,473.7,157.4
		C473.7,157.3,473.7,157.4,473.7,157.4z"/>
	<path class="st4" d="M455.1,162c-0.3-0.2-0.5-0.4-0.5-0.8C455.2,161.2,455,161.7,455.1,162C455.1,162,455.1,162,455.1,162z"/>
	<path class="st4" d="M436.5,157.4c-0.3-0.2-0.6-0.3-0.4-0.8C436.6,156.6,436.5,157,436.5,157.4
		C436.5,157.3,436.5,157.4,436.5,157.4z"/>
	<path class="st4" d="M456.6,136.9c0-0.1,0.1-0.3,0.1-0.4c0,0,0.1,0.1,0.1,0.1C456.8,136.7,456.7,136.8,456.6,136.9
		C456.6,136.9,456.6,136.9,456.6,136.9z"/>
	<path class="st4" d="M475.2,136.9c0-0.1,0.1-0.3,0.1-0.4c0,0,0.1,0.1,0.1,0.1C475.4,136.7,475.3,136.8,475.2,136.9
		C475.2,136.9,475.2,136.9,475.2,136.9z"/>
	<path class="st4" d="M445.5,137.2c-0.1-0.1-0.2-0.2-0.2-0.4c0,0,0.1-0.1,0.1-0.1C445.4,136.9,445.5,137.1,445.5,137.2
		C445.5,137.2,445.5,137.2,445.5,137.2z"/>
	<path class="st4" d="M454.8,183.1c-0.1-0.1-0.2-0.2-0.2-0.4c0,0,0.1-0.1,0.1-0.1C454.7,182.8,454.7,182.9,454.8,183.1
		C454.8,183,454.8,183.1,454.8,183.1z"/>
	<path class="st4" d="M465.9,182.7c0-0.1,0.1-0.3,0.1-0.4c0,0,0.1,0.1,0.1,0.1C466.1,182.5,466,182.6,465.9,182.7
		C465.9,182.8,465.9,182.7,465.9,182.7z"/>
	<path class="st4" d="M484.5,157c0-0.1,0.1-0.3,0.1-0.4c0,0,0.1,0.1,0.1,0.1C484.7,156.8,484.6,156.9,484.5,157
		C484.5,157,484.5,157,484.5,157z"/>
	<path class="st4" d="M465.9,161.7c0-0.1,0.1-0.3,0.1-0.4c0,0,0.1,0.1,0.1,0.1C466.1,161.5,466,161.6,465.9,161.7
		C465.9,161.7,465.9,161.7,465.9,161.7z"/>
	<path class="st4" d="M447.3,157c0-0.1,0.1-0.3,0.1-0.4c0,0,0.1,0.1,0.1,0.1C447.5,156.8,447.4,156.9,447.3,157
		C447.4,157,447.3,157,447.3,157z"/>
	<path class="st4" d="M473.4,178.4c-0.1-0.1-0.2-0.2-0.2-0.4c0,0,0.1-0.1,0.1-0.1C473.3,178.1,473.3,178.3,473.4,178.4
		C473.4,178.4,473.4,178.4,473.4,178.4z"/>
	<path class="st4" d="M436.2,178.4c-0.1-0.1-0.2-0.2-0.2-0.4c0,0,0.1-0.1,0.1-0.1C436.1,178.1,436.2,178.3,436.2,178.4
		C436.2,178.4,436.2,178.4,436.2,178.4z"/>
	<path class="st4" d="M484.5,178.1c0-0.1,0.1-0.3,0.1-0.4c0,0,0.1,0.1,0.1,0.1C484.7,177.9,484.6,178,484.5,178.1
		C484.5,178.1,484.5,178.1,484.5,178.1z"/>
	<path class="st4" d="M447.3,178.1c0-0.1,0.1-0.3,0.1-0.4c0,0,0.1,0.1,0.1,0.1C447.5,177.9,447.4,178,447.3,178.1
		C447.3,178.1,447.3,178.1,447.3,178.1z"/>
	<path class="st4" d="M464.1,137.2c-0.1-0.1-0.2-0.2-0.2-0.4c0,0,0.1-0.1,0.1-0.1C464,136.9,464,137.1,464.1,137.2
		C464.1,137.2,464.1,137.2,464.1,137.2z"/>
	<path class="st0" d="M115.6,191.5c4.6,11.1,9.1,22,13.6,32.9c-9,0-17.8,0-26.7,0C106.8,213.5,111.2,202.7,115.6,191.5z"/>
	<path class="st0" d="M190.5,207.7c10.3,0,19.1,6.7,21.2,16.3c2.5,11.5-5.6,23.1-17.3,24.8c-8.7,1.2-15.9-1.4-21.4-8.2
		c-8.9-11.2-2.8-28.2,11.4-32C186.3,208,188.4,207.7,190.5,207.7z"/>
	<path class="st0" d="M487,212.2c1.2,0,2-0.7,2.6-1.6c0.1-0.1,0.2-0.2,0.3-0.3c0,0,0,0,0,0c0.9-0.4,1.9-0.8,2.8-1.2
		c2.2,1,2.8,0.8,4.2-1.1c6.8-1,13.2-0.1,18.8,4.1c11.4,8.4,11.7,23.3,0.5,32c-10.2,8-25.8,6-33.7-4.2c-5.6-7.2-5.2-17.4,0.8-24.2
		C484.4,214.5,485.7,213.4,487,212.2z"/>
	<path class="st1" d="M492.6,209.2c-0.9,0.4-1.9,0.8-2.8,1.2c0.2-1.4,0.4-2.7,0.4-4.1C490.9,207.3,491.7,208.3,492.6,209.2z"/>
	<path class="st1" d="M489.8,210.3c-0.1,0.1-0.2,0.2-0.3,0.3C489.6,210.5,489.7,210.4,489.8,210.3z"/>
	<path class="st1" d="M407.3,54.4c0.5,5.2,3,8.1,6.9,8.4c3.8,0.3,7.1-2.1,8-5.7c0.9-3.8-1-7.2-5.2-9c5.1-2.1,14.8-0.3,19.7,7.9
		c4.6,7.6,2.8,17.5-4.2,23.1c-7,5.5-17.1,5-23.5-1.3C402.6,71.6,401.8,61.6,407.3,54.4z"/>
	<path class="st1" d="M485.3,54.5c0.3,4.9,2.7,7.9,6.6,8.3c3.8,0.4,7.2-1.9,8.2-5.4c1.1-4-0.8-7.3-5.3-9.3c7.5-2.6,17,1.7,20.7,9.5
		c3.9,8.2,1,18-6.7,22.8c-7.7,4.8-17.7,3-23.4-4.1C479.6,69,480.9,59.2,485.3,54.5z"/>
</g>
</svg>
